<svg width="145" height="56" viewBox="0 0 145 56" fill="none" xmlns="http://www.w3.org/2000/svg">
<mask id="mask0_330_130" style="mask-type:alpha" maskUnits="userSpaceOnUse" x="0" y="0" width="145" height="56">
<path d="M13.4219 0L0 56H131.578L145 0H13.4219Z" fill="#FA1414"/>
</mask>
<g mask="url(#mask0_330_130)">
<path d="M13.4219 0L0 56H131.578L145 0H13.4219Z" fill="url(#paint0_linear_330_130)"/>
<g filter="url(#filter0_f_330_130)">
<circle cx="135" cy="2" r="22" fill="white" fill-opacity="0.8"/>
</g>
<path d="M16.2675 4.41797L10.4521 27.2788H44.6121L50.4585 4.41797H16.2675Z" fill="white"/>
<path d="M9.55227 29L3.73688 52.3005L129.032 52.3005L135.187 29L9.55227 29Z" fill="#262626"/>
<path d="M20.7065 34.6811C20.5217 34.548 20.2999 34.4224 20.0412 34.3041C19.7899 34.1858 19.5163 34.0823 19.2206 33.9936C18.9323 33.9049 18.6292 33.8347 18.3114 33.7829C17.9935 33.7312 17.6793 33.7053 17.3688 33.7053C16.7774 33.7053 16.2785 33.7903 15.8719 33.9603C15.4727 34.123 15.1511 34.3336 14.9072 34.5924C14.6632 34.8437 14.4858 35.1209 14.3749 35.424C14.2714 35.7271 14.2197 36.0117 14.2197 36.2779C14.2197 36.6253 14.2677 36.9395 14.3638 37.2204C14.4599 37.5013 14.6041 37.7711 14.7963 38.0299C14.9885 38.2886 15.2361 38.5473 15.5392 38.8061C15.8423 39.0648 16.1971 39.342 16.6037 39.6377C17.0621 39.9704 17.4686 40.2993 17.8235 40.6246C18.1857 40.9499 18.4925 41.2862 18.7438 41.6337C18.9952 41.9737 19.1837 42.3359 19.3093 42.7203C19.4424 43.0974 19.5089 43.5076 19.5089 43.9512C19.5089 44.2247 19.4794 44.5278 19.4202 44.8604C19.3685 45.1857 19.2687 45.5147 19.1208 45.8473C18.9804 46.18 18.7845 46.5053 18.5331 46.8231C18.2818 47.141 17.9602 47.4219 17.5684 47.6659C17.184 47.9098 16.7183 48.1057 16.1713 48.2536C15.6242 48.4014 14.9811 48.4753 14.2418 48.4753C13.8279 48.4753 13.4213 48.4458 13.0221 48.3866C12.6229 48.3275 12.2422 48.2499 11.88 48.1538C11.5251 48.0577 11.1962 47.9505 10.8931 47.8322C10.5974 47.7065 10.3423 47.5845 10.128 47.4663L10.4495 45.5369C10.6861 45.7069 10.9559 45.8695 11.259 46.0248C11.5621 46.1726 11.8837 46.3057 12.2237 46.4239C12.5638 46.5348 12.9149 46.6235 13.2771 46.6901C13.6394 46.7566 13.9979 46.7899 14.3527 46.7899C14.9146 46.7899 15.3951 46.7233 15.7943 46.5903C16.2008 46.4572 16.5335 46.2761 16.7922 46.0469C17.0584 45.8104 17.2506 45.5332 17.3688 45.2153C17.4945 44.8974 17.5573 44.5537 17.5573 44.184C17.5573 43.8514 17.5056 43.552 17.4021 43.2859C17.2986 43.0197 17.1397 42.761 16.9253 42.5097C16.7109 42.2509 16.4374 41.9922 16.1047 41.7335C15.7795 41.4673 15.3914 41.1753 14.9404 40.8575C14.5782 40.5987 14.2308 40.3215 13.8981 40.0258C13.5728 39.7227 13.2845 39.3938 13.0332 39.0389C12.7892 38.6841 12.5933 38.2997 12.4455 37.8857C12.305 37.4643 12.2348 37.0097 12.2348 36.5218C12.2348 35.9156 12.3457 35.3427 12.5675 34.8031C12.7966 34.256 13.133 33.7792 13.5765 33.3726C14.0201 32.9587 14.5671 32.6334 15.2176 32.3968C15.8756 32.1529 16.637 32.0309 17.5019 32.0309C17.8346 32.0309 18.1635 32.0531 18.4888 32.0974C18.8214 32.1344 19.143 32.1898 19.4535 32.2638C19.764 32.3303 20.056 32.4079 20.3295 32.4966C20.6104 32.578 20.8581 32.663 21.0724 32.7517L20.7065 34.6811ZM34.2014 33.9825H29.6772L26.6833 48.1981H24.776L27.7921 33.9825H23.1682L23.523 32.297H34.5673L34.2014 33.9825ZM45.922 36.2335C45.922 36.921 45.8001 37.542 45.5561 38.0964C45.3196 38.6508 44.9906 39.1276 44.5692 39.5268C44.1479 39.926 43.6452 40.2476 43.0612 40.4915C42.4772 40.7281 41.8414 40.8759 41.1539 40.9351V40.9794C41.5014 41.0903 41.8045 41.3232 42.0632 41.678C42.3293 42.0328 42.5437 42.5097 42.7063 43.1084L44.037 48.1981H41.9967L40.8213 43.4522C40.6512 42.7573 40.3777 42.2472 40.0007 41.922C39.6311 41.5967 39.1395 41.4341 38.5259 41.4341H37.1398L35.6872 48.1981H33.78L37.1398 32.297H41.5199C42.2961 32.297 42.9614 32.4005 43.5158 32.6075C44.0702 32.8145 44.5249 33.0991 44.8797 33.4613C45.2345 33.8162 45.497 34.2339 45.667 34.7144C45.837 35.1875 45.922 35.6939 45.922 36.2335ZM43.9704 36.4331C43.9704 36.0783 43.915 35.753 43.8041 35.4573C43.6932 35.1542 43.5232 34.8955 43.294 34.6811C43.0649 34.4593 42.7729 34.2893 42.418 34.171C42.0632 34.0453 41.6418 33.9825 41.1539 33.9825H38.7033L37.4836 39.7486H39.6791C40.4553 39.7486 41.1133 39.6562 41.6529 39.4714C42.2 39.2866 42.6435 39.0426 42.9835 38.7395C43.331 38.4364 43.5823 38.0853 43.7376 37.6861C43.8928 37.2795 43.9704 36.8619 43.9704 36.4331ZM58.053 33.9825H51.921L50.7678 39.4048H56.4451L56.0792 41.0903H50.4018L49.2375 46.5126H55.7576L55.425 48.1981H46.9976L50.3575 32.297H58.4189L58.053 33.9825ZM68.5872 48.1981L67.8664 43.7516H61.1245L58.552 48.1981H56.3564L65.8261 32.297H67.7777L70.5499 48.1981H68.5872ZM66.5469 35.3021C66.5395 35.2281 66.5321 35.1431 66.5247 35.047C66.5247 34.9509 66.5247 34.8548 66.5247 34.7587C66.5247 34.6552 66.5247 34.5591 66.5247 34.4704C66.5247 34.3743 66.5247 34.293 66.5247 34.2265H66.4803C66.4582 34.293 66.4286 34.3743 66.3916 34.4704C66.3547 34.5591 66.314 34.6552 66.2696 34.7587C66.2253 34.8548 66.1772 34.9509 66.1255 35.047C66.0811 35.1431 66.0405 35.2281 66.0035 35.3021L62.0782 42.0661H67.567L66.5469 35.3021ZM87.1163 48.1981H85.2645L87.5265 37.5309C87.6152 37.1095 87.7298 36.6327 87.8703 36.1004C88.0107 35.5608 88.1734 34.9842 88.3582 34.3706H88.3138C88.2251 34.548 88.1142 34.7476 87.9812 34.9694C87.8481 35.1838 87.7076 35.3945 87.5598 35.6014C87.4193 35.801 87.29 35.9822 87.1717 36.1448C87.0534 36.3074 86.9684 36.4294 86.9167 36.5107L81.2282 44.051H80.3189L77.8351 36.5329C77.8203 36.4442 77.7833 36.3185 77.7242 36.1559C77.6724 35.9859 77.6207 35.801 77.569 35.6014C77.5172 35.3945 77.4692 35.1838 77.4248 34.9694C77.3878 34.755 77.3694 34.5554 77.3694 34.3706H77.325C77.2806 34.6885 77.2067 35.1172 77.1032 35.6569C77.0071 36.1965 76.8852 36.8286 76.7373 37.553L74.4752 48.1981H72.6789L76.0498 32.297H78.2675L80.7847 39.8595C80.8955 40.1921 80.9806 40.5026 81.0397 40.7909C81.1062 41.0792 81.1469 41.3306 81.1617 41.5449H81.2282C81.3465 41.3232 81.4906 41.0644 81.6607 40.7687C81.8307 40.473 82.0488 40.1552 82.3149 39.8151L88.0255 32.297H90.4872L87.1163 48.1981ZM93.1706 48.1981H91.2634L94.6233 32.297H96.5527L93.1706 48.1981ZM110.258 48.1981H108.196L102.33 35.4573C102.308 35.3982 102.282 35.3279 102.252 35.2466C102.223 35.1579 102.193 35.0655 102.164 34.9694C102.134 34.8733 102.108 34.7809 102.086 34.6922C102.064 34.6035 102.049 34.5332 102.042 34.4815H101.975C101.968 34.5554 101.957 34.6478 101.942 34.7587C101.934 34.8622 101.923 34.9694 101.908 35.0803C101.894 35.1912 101.875 35.3021 101.853 35.4129C101.838 35.5164 101.823 35.6088 101.809 35.6902L99.1585 48.1981H97.3178L100.678 32.297H102.906L108.528 44.7717C108.565 44.8383 108.602 44.9196 108.639 45.0157C108.676 45.1044 108.713 45.2005 108.75 45.304C108.787 45.4001 108.82 45.4962 108.85 45.5923C108.887 45.6884 108.916 45.7697 108.939 45.8362H108.983C108.99 45.7475 109.001 45.644 109.016 45.5258C109.031 45.4075 109.046 45.2855 109.061 45.1598C109.075 45.0268 109.094 44.8974 109.116 44.7717C109.138 44.6461 109.157 44.5389 109.172 44.4502L111.755 32.297H113.64L110.258 48.1981ZM128.521 35.0027C128.277 34.84 127.996 34.6811 127.678 34.5259C127.368 34.3706 127.024 34.2339 126.647 34.1156C126.27 33.9899 125.86 33.8901 125.416 33.8162C124.98 33.7423 124.514 33.7053 124.019 33.7053C122.918 33.7053 121.935 33.9012 121.07 34.293C120.205 34.6848 119.473 35.2207 118.874 35.9008C118.275 36.5736 117.817 37.3682 117.499 38.2849C117.181 39.2016 117.022 40.181 117.022 41.2234C117.022 42.0883 117.141 42.8645 117.377 43.552C117.621 44.2395 117.968 44.8235 118.419 45.304C118.87 45.7845 119.414 46.1541 120.049 46.4129C120.693 46.6642 121.417 46.7899 122.223 46.7899C122.777 46.7899 123.276 46.7455 123.72 46.6568C124.171 46.5607 124.588 46.4387 124.973 46.2909L125.926 41.6558H122.245L122.611 40.0036H128.2L126.636 47.3332C126.008 47.6659 125.313 47.9431 124.551 48.1649C123.79 48.3866 122.94 48.4975 122.001 48.4975C120.914 48.4975 119.942 48.3164 119.085 47.9542C118.227 47.5919 117.499 47.0967 116.9 46.4683C116.309 45.8325 115.854 45.0859 115.536 44.2284C115.226 43.3635 115.071 42.432 115.071 41.4341C115.071 40.5765 115.159 39.7486 115.337 38.9502C115.514 38.1518 115.777 37.4052 116.124 36.7103C116.472 36.008 116.904 35.3723 117.421 34.8031C117.939 34.2265 118.538 33.7349 119.218 33.3283C119.898 32.9143 120.656 32.5964 121.491 32.3747C122.334 32.1455 123.254 32.0309 124.252 32.0309C124.799 32.0309 125.305 32.0642 125.771 32.1307C126.244 32.1972 126.673 32.2823 127.057 32.3857C127.449 32.4892 127.797 32.6038 128.1 32.7295C128.403 32.8478 128.662 32.9624 128.876 33.0732L128.521 35.0027Z" fill="white"/>
<path d="M75.7701 24H65.5831L69.2128 6.9344H73.0925L70.1411 20.8344H76.4366L75.7701 24ZM81.9585 24H78.0789L81.6848 6.9344H85.5644L81.9585 24ZM94.0258 24H89.7892L87.5994 6.9344H91.5386L92.6929 18.7399C92.7167 19.0176 92.7286 19.3032 92.7286 19.5967C92.7366 19.8824 92.7167 20.1481 92.6691 20.3941H92.7643C92.8357 20.164 92.927 19.9062 93.038 19.6205C93.1571 19.3349 93.2999 19.0255 93.4665 18.6923L99.393 6.9344H103.63L94.0258 24ZM114.864 10.0643H108.902L108.092 13.9082H113.65L112.972 17.05H107.438L106.605 20.882H112.972L112.305 24H102.071L105.7 6.9344H115.53L114.864 10.0643Z" fill="white"/>
<path d="M38.1488 17.2068L23.4212 22.3164L26.7274 9.25842L38.1488 17.2068Z" fill="#C91313"/>
</g>
<defs>
<filter id="filter0_f_330_130" x="92.2" y="-40.8" width="85.6" height="85.6" filterUnits="userSpaceOnUse" color-interpolation-filters="sRGB">
<feFlood flood-opacity="0" result="BackgroundImageFix"/>
<feBlend mode="normal" in="SourceGraphic" in2="BackgroundImageFix" result="shape"/>
<feGaussianBlur stdDeviation="10.4" result="effect1_foregroundBlur_330_130"/>
</filter>
<linearGradient id="paint0_linear_330_130" x1="72.5" y1="0" x2="72.5" y2="56" gradientUnits="userSpaceOnUse">
<stop stop-color="#FA1414"/>
<stop offset="1" stop-color="#9A183F"/>
</linearGradient>
</defs>
</svg>
