<svg width="187" height="37" viewBox="0 0 187 37" fill="none" xmlns="http://www.w3.org/2000/svg">
<path d="M18.3793 30.2004H12.7182V29.5992C13.8872 29.5992 14.4717 29.165 14.4717 28.2967V14.219C14.4717 12.6493 14.0375 11.3801 13.1691 10.4116C12.3008 9.44299 11.0817 8.95871 9.51195 8.95871C7.37442 8.95871 5.82137 9.79368 4.85281 11.4636C3.95104 12.9332 3.43335 15.221 3.29976 18.3271C3.63375 17.2583 4.51882 16.7239 5.95497 16.7239C7.32432 16.7239 8.29289 17.2249 8.86067 18.2269C9.46185 19.1955 9.76244 20.8654 9.76244 23.2367C9.76244 27.8458 8.19269 30.1503 5.0532 30.1503C3.34986 30.1503 2.0974 29.4322 1.29583 27.9961C0.527652 26.5265 0.143565 24.1552 0.143565 20.8821C0.143565 16.6405 0.778143 13.5177 2.0473 11.5137C3.51685 9.1758 6.00507 8.00684 9.51195 8.00684C14.5218 8.00684 17.0267 10.278 17.0267 14.8202V28.6974C17.0267 28.998 17.177 29.2318 17.4776 29.3988C17.7782 29.5658 18.0788 29.6159 18.3793 29.5491V30.2004ZM7.00703 22.3851C7.00703 19.3792 6.42255 17.8762 5.25359 17.8762C3.75064 17.8762 2.99917 19.9803 2.99917 24.1886C2.99917 27.6621 3.65045 29.3988 4.953 29.3988C6.32236 29.3988 7.00703 27.0609 7.00703 22.3851ZM35.5513 24.0383C35.5513 29.8831 32.8126 32.8055 27.3352 32.8055C26.3332 32.8055 25.4315 32.7554 24.6299 32.6552C23.8617 32.555 23.2939 32.5049 22.9266 32.5049C21.4904 32.5049 20.4717 32.7888 19.8706 33.3566C19.2694 33.9578 18.9688 35.0432 18.9688 36.613H18.3676V32.054C18.7016 31.5196 19.5032 31.2525 20.7723 31.2525C21.5739 31.2525 22.5759 31.336 23.7782 31.5029C25.014 31.7033 25.9659 31.8035 26.6338 31.8035C28.738 31.8035 30.2743 31.2692 31.2429 30.2004C32.345 28.9312 32.8961 26.7102 32.8961 23.5373C32.8961 19.83 32.011 17.9764 30.2409 17.9764H29.1387V26.2927C29.1387 27.5619 28.7213 28.5471 27.8863 29.2485C27.1849 29.8497 26.2831 30.1503 25.181 30.1503C23.344 30.1503 21.9413 29.5324 20.9727 28.2967C20.0376 27.0609 19.57 25.4077 19.57 23.3369C19.57 20.2642 20.4884 18.3939 22.3254 17.7259V12.8163C22.3254 11.7809 21.8578 11.2632 20.9226 11.2632C20.6888 11.2632 20.4717 11.33 20.2713 11.4636V10.7622H31.4934C32.5621 10.7622 33.0965 10.111 33.0965 8.80842H33.4973V13.6179H33.0965C33.0965 12.3153 32.6623 11.664 31.794 11.664H29.1387V17.0746H30.1407C31.9109 17.0746 33.2301 17.5589 34.0985 18.5275C35.067 19.6296 35.5513 21.4666 35.5513 24.0383ZM26.734 17.0746V11.7141H24.7802V17.0746H26.734ZM26.734 26.9941V17.9764H25.1309C24.2959 17.9764 23.6112 18.4607 23.0768 19.4293C22.4423 20.5648 22.125 22.168 22.125 24.2387C22.125 25.8084 22.3755 27.0442 22.8765 27.946C23.4108 28.8143 24.0621 29.2485 24.8303 29.2485C26.0994 29.2485 26.734 28.4971 26.734 26.9941ZM54.2685 5.50193C54.2685 6.3369 53.9512 6.75438 53.3167 6.75438C52.7823 6.75438 51.9139 6.2534 50.7115 5.25143C50.8785 6.4204 50.962 7.00488 50.962 7.00488C50.962 8.10704 50.5279 8.65812 49.6595 8.65812C48.8913 8.65812 48.5072 8.15714 48.5072 7.15517C48.5072 6.58739 48.6575 6.03631 48.9581 5.50193C48.2901 5.83591 47.6722 6.00291 47.1045 6.00291C45.9689 6.00291 45.4011 5.60212 45.4011 4.80055C45.4011 4.03238 46.1359 3.64829 47.6055 3.64829C47.9394 3.64829 48.2734 3.66499 48.6074 3.69839C47.4719 2.72982 46.9041 1.97834 46.9041 1.44396C46.9041 0.709188 47.2548 0.341801 47.9561 0.341801C48.9581 0.341801 49.6428 1.22687 50.0102 2.99701C50.411 1.39386 51.0789 0.592292 52.0141 0.592292C52.8491 0.592292 53.2666 0.94298 53.2666 1.64436C53.2666 2.54613 52.5986 3.3811 51.2626 4.14927C52.2312 4.18267 52.9994 4.34966 53.5672 4.65025C54.0347 4.91745 54.2685 5.20134 54.2685 5.50193ZM61.1821 13.718H60.7813C60.5141 12.2819 59.963 11.5638 59.1281 11.5638H57.7253V28.3969C57.7253 28.7976 57.8923 29.1149 58.2263 29.3487C58.5937 29.5825 58.9444 29.666 59.2784 29.5992V30H53.5672V29.5992C54.6359 29.6326 55.1703 29.1984 55.1703 28.2967V11.5638H52.0642C51.5298 11.5638 51.1457 11.6473 50.9119 11.8143C52.6821 13.5845 53.5672 16.557 53.5672 20.7318C53.5672 27.0776 51.8805 30.2505 48.5072 30.2505C46.8707 30.2505 45.7685 29.6994 45.2007 28.5972C44.5328 29.7662 43.4974 30.3507 42.0946 30.3507C38.7214 30.3507 37.0347 27.4283 37.0347 21.5835C37.0347 14.1021 40.0072 10.3615 45.9522 10.3615C47.4886 10.3615 48.6575 10.5452 49.4591 10.9125C49.7931 10.7122 50.5112 10.612 51.6133 10.612H58.7774C59.9797 10.612 60.6477 9.92728 60.7813 8.55792H61.1821V13.718ZM50.2106 4.34966C50.2106 3.94888 50.0436 3.74848 49.7096 3.74848C49.3088 3.74848 49.1084 3.94888 49.1084 4.34966C49.1084 4.75045 49.2921 4.95085 49.6595 4.95085C50.0269 4.95085 50.2106 4.75045 50.2106 4.34966ZM47.906 11.3634C47.3049 11.163 46.687 11.0628 46.0524 11.0628C44.5161 11.0628 43.2135 11.6139 42.1447 12.7161C40.9758 13.9518 40.3412 15.5884 40.241 17.6257C40.7754 17.0245 41.4935 16.7239 42.3952 16.7239C43.0632 16.7239 43.7312 16.8909 44.3992 17.2249C44.466 16.0894 44.8667 14.8703 45.6015 13.5678C46.3363 12.2318 47.1045 11.497 47.906 11.3634ZM50.9119 20.832C50.9119 16.3232 50.2607 13.4175 48.9581 12.1149C47.355 13.1169 46.5534 16.4735 46.5534 22.1847C46.5534 26.9607 47.2047 29.3487 48.5072 29.3487C49.1084 29.3487 49.6428 28.7475 50.1104 27.5452C50.6447 26.0088 50.9119 23.7711 50.9119 20.832ZM43.798 23.6876C43.798 19.7465 43.1467 17.776 41.8441 17.776C40.5416 17.776 39.8903 19.5128 39.8903 22.9862C39.8903 27.2279 40.5416 29.3487 41.8441 29.3487C43.1467 29.3487 43.798 27.4617 43.798 23.6876ZM96.6865 30.7014H90.9252V30.2004C92.1944 30.2004 92.829 29.6827 92.829 28.6473V9.109C92.829 6.83788 91.5264 5.70232 88.9213 5.70232C87.6187 5.70232 86.6001 6.06971 85.8653 6.80448C85.1639 7.53926 84.8132 8.44103 84.8132 9.50979V10.7622H87.2681C88.3034 10.7622 88.8211 10.0943 88.8211 8.75832H89.272V13.6179H88.8211C88.8211 12.3153 88.4036 11.664 87.5686 11.664H84.8132V17.0746H85.8152C87.7857 17.0746 89.1718 17.5756 89.9734 18.5776C90.8083 19.5462 91.2258 21.3664 91.2258 24.0383C91.2258 29.8497 88.4871 32.7554 83.0097 32.7554C82.0077 32.7554 81.106 32.7053 80.3044 32.6051C79.5362 32.5383 78.9684 32.5049 78.601 32.5049C77.0981 32.5049 76.0627 32.7888 75.4949 33.3566C74.9606 33.9244 74.6934 35.0098 74.6934 36.613H74.0922V32.054C74.3928 31.4862 75.1777 31.2024 76.4468 31.2024C77.2484 31.2024 78.2504 31.2859 79.4527 31.4529C80.6885 31.6532 81.6403 31.7534 82.3083 31.7534C84.4458 31.7534 85.9989 31.2191 86.9675 30.1503C88.0696 28.9145 88.6207 26.6935 88.6207 23.4872C88.6207 19.8133 87.7189 17.9764 85.9154 17.9764H84.8132V26.2927C84.8132 27.5953 84.3957 28.5805 83.5608 29.2485C82.8594 29.8497 81.9743 30.1503 80.9056 30.1503C79.0686 30.1503 77.6659 29.5324 76.6973 28.2967C75.7287 27.0609 75.2445 25.4077 75.2445 23.3369C75.2445 20.4312 76.1629 18.5776 77.9999 17.776V12.8163C77.9999 12.3821 77.8329 12.0314 77.4989 11.7642C77.1983 11.4636 76.8476 11.3133 76.4468 11.3133C76.2464 11.3133 76.0794 11.3467 75.9458 11.4135V10.7622H82.4586C82.492 8.62472 83.0932 7.10507 84.2622 6.2033C85.2975 5.40173 86.8673 5.00094 88.9714 5.00094C90.9085 5.00094 92.4449 5.43513 93.5804 6.3035C94.7494 7.13847 95.3339 8.22393 95.3339 9.55989V28.998C95.3339 29.7662 95.7848 30.1837 96.6865 30.2505V30.7014ZM82.4586 17.0746V11.664H80.4547V17.0746H82.4586ZM82.4586 27.0442V17.9764H80.8054C79.9704 17.9764 79.2857 18.4774 78.7513 19.4794C78.1168 20.6149 77.7995 22.2181 77.7995 24.2888C77.7995 25.8585 78.05 27.0776 78.5509 27.946C79.0853 28.7809 79.7366 29.1984 80.5048 29.1984C81.8073 29.1984 82.4586 28.4804 82.4586 27.0442ZM121.044 24.89C121.044 27.8959 119.959 30.2839 117.788 32.054C115.75 33.6906 113.129 34.5088 109.922 34.5088C105.781 34.5088 102.758 33.7407 100.854 32.2043C98.8171 30.501 97.7985 27.7122 97.7985 23.8379C97.7985 21.1326 98.2494 18.9951 99.1511 17.4253C100.153 15.722 101.556 14.8703 103.359 14.8703V15.6218C101.289 15.6218 100.253 18.5108 100.253 24.2888C100.253 30.4676 103.359 33.557 109.572 33.557C112.444 33.557 114.632 32.6886 116.134 30.9519C117.671 29.2485 118.439 26.7937 118.439 23.5874C118.439 19.9135 117.537 18.0766 115.734 18.0766C114.966 18.0766 114.314 18.4106 113.78 19.0786C113.279 19.7465 113.028 20.498 113.028 21.333V28.447C113.028 29.2485 113.412 29.6326 114.181 29.5992V30H109.021V29.5491C110.022 29.5491 110.523 29.0481 110.523 28.0462V11.7642H106.866V28.3468C106.866 29.1149 107.2 29.499 107.868 29.499V30H102.858V29.5491C103.894 29.5491 104.411 29.0314 104.411 27.9961V12.7662C104.411 11.6974 103.777 11.2465 102.508 11.4135V10.8123H116.285C116.853 10.8123 117.32 10.6287 117.688 10.2613C118.055 9.89388 118.188 9.39289 118.088 8.75832H118.539V13.668H118.038C118.038 12.9332 117.938 12.4322 117.738 12.165C117.537 11.8978 117.12 11.7642 116.485 11.7642H113.028V18.778C113.663 17.5088 114.682 16.8742 116.084 16.8742C117.821 16.8742 119.074 17.5088 119.842 18.778C120.643 20.0471 121.044 22.0845 121.044 24.89ZM140.289 19.7298C140.289 26.5766 138.135 30 133.826 30H122.003V29.5491C123.038 29.5491 123.556 29.0147 123.556 27.946V12.4656C123.556 11.5638 123.088 11.1463 122.153 11.2131V10.7622H127.664V11.2131C126.595 11.2131 126.061 11.7809 126.061 12.9165V29.0481H130.069V12.4656C130.069 11.497 129.651 11.0962 128.816 11.2632V10.7622H133.676C138.085 10.7622 140.289 13.7514 140.289 19.7298ZM137.734 19.9302C137.734 16.7573 137.35 14.5196 136.582 13.2171C135.947 12.1149 134.962 11.5638 133.626 11.5638H132.724V29.0481H133.626C136.365 29.0481 137.734 26.0088 137.734 19.9302ZM164.676 20.2308C164.676 26.944 162.923 30.3006 159.416 30.3006C158.614 30.3006 158.13 30.1503 157.963 29.8497V28.5972C158.431 29.1316 158.948 29.3988 159.516 29.3988C160.184 29.3988 160.785 28.6974 161.32 27.2947C161.887 25.7249 162.171 23.6876 162.171 21.1827C162.171 17.3084 161.737 14.6198 160.869 13.1169C160.167 11.9145 159.015 11.3133 157.412 11.3133C156.443 11.3133 155.775 11.4636 155.408 11.7642C156.243 12.2318 156.928 13.3173 157.462 15.0206C157.996 16.6905 158.264 18.5943 158.264 20.7318C158.264 27.111 156.51 30.3006 153.003 30.3006C151.667 30.3006 150.599 29.7495 149.797 28.6473C149.162 29.8163 148.144 30.4008 146.741 30.4008C143.368 30.4008 141.681 27.5118 141.681 21.7338C141.681 14.219 144.687 10.4617 150.699 10.4617C152.402 10.4617 153.521 10.6621 154.055 11.0628C154.657 10.6955 155.742 10.5118 157.312 10.5118C162.221 10.5118 164.676 13.7514 164.676 20.2308ZM152.602 11.4636C151.968 11.2966 151.35 11.2131 150.749 11.2131C149.146 11.2131 147.826 11.7642 146.791 12.8664C145.656 14.0353 145.004 15.722 144.837 17.9263C145.438 17.1915 146.24 16.8241 147.242 16.8241C147.977 16.8241 148.595 17.0245 149.096 17.4253C149.062 16.3232 149.43 15.0874 150.198 13.718C150.999 12.3487 151.801 11.5972 152.602 11.4636ZM155.608 21.4833C155.608 16.4735 154.974 13.3841 153.705 12.2151C152.068 13.2839 151.25 16.6071 151.25 22.1847C151.25 26.9941 151.901 29.3988 153.204 29.3988C153.771 29.3988 154.289 28.7809 154.757 27.5452C155.325 26.0756 155.608 24.055 155.608 21.4833ZM148.394 23.8379C148.394 19.8968 147.793 17.9263 146.591 17.9263C145.188 17.9263 144.487 19.6296 144.487 23.0363C144.487 27.278 145.138 29.3988 146.44 29.3988C147.743 29.3988 148.394 27.5452 148.394 23.8379ZM186.736 19.5796C186.736 26.6267 184.866 30.1503 181.125 30.1503C178.42 30.1503 177.067 28.8477 177.067 26.2426V15.221C177.067 12.6159 176.098 11.3133 174.161 11.3133C171.256 11.3133 169.619 13.3674 169.252 17.4754C170.02 16.7072 170.905 16.3232 171.907 16.3232C174.445 16.3232 175.714 18.4106 175.714 22.5855C175.714 27.6621 174.128 30.2004 170.955 30.2004C167.749 30.2004 166.145 27.278 166.145 21.4332C166.145 13.9852 168.734 10.2613 173.911 10.2613C177.818 10.2613 179.772 11.8811 179.772 15.1208V26.8438C179.772 28.3802 180.307 29.1483 181.375 29.1483C182.043 29.1483 182.645 28.4303 183.179 26.9941C183.747 25.3576 184.031 23.1532 184.031 20.3811C184.031 17.3084 183.73 14.9538 183.129 13.3173C182.594 11.8477 181.876 11.1129 180.975 11.1129C180.707 11.1129 180.424 11.1797 180.123 11.3133V10.2613C180.457 10.1945 180.774 10.1611 181.075 10.1611C182.778 10.1611 184.147 10.9793 185.183 12.6159C186.218 14.2524 186.736 16.5737 186.736 19.5796ZM172.758 23.2868C172.758 19.3458 172.191 17.3752 171.055 17.3752C169.686 17.3752 169.001 19.2456 169.001 22.9862C169.001 27.0275 169.652 29.0481 170.955 29.0481C172.157 29.0481 172.758 27.1277 172.758 23.2868Z" fill="url(#paint0_linear_995_277)"/>
<defs>
<linearGradient id="paint0_linear_995_277" x1="-12" y1="19" x2="199" y2="19" gradientUnits="userSpaceOnUse">
<stop stop-color="#052DFF"/>
<stop offset="1" stop-color="#461B09"/>
</linearGradient>
</defs>
</svg>
