<svg width="946" height="73" viewBox="0 0 946 73" fill="none" xmlns="http://www.w3.org/2000/svg">
<path d="M15.0352 69.5L21.0352 68V3.5H9.53516C9.53516 7.56666 8.43516 11.4667 6.23516 15.2C5.30182 16.7333 4.23516 18 3.03516 19H0.0351563V0.999995H58.5352V19H55.5352C54.2685 18 53.1685 16.7333 52.2352 15.2C50.1018 11.6 49.0352 7.7 49.0352 3.5H37.5352V68L43.5352 69.5V71H15.0352V69.5ZM66.0117 71V69.5L72.0117 68V4L66.0117 2.49999V0.999995H94.5117V2.49999L88.5117 4V35H110.012V4L104.012 2.49999V0.999995H132.512V2.49999L126.512 4V68L132.512 69.5V71H104.012V69.5L110.012 68V37.5H88.5117V68L94.5117 69.5V71H66.0117ZM141.5 69.5L147.5 68V4L141.5 2.49999V0.999995H195V19H192C190.733 18 189.633 16.7333 188.7 15.2C186.567 11.6 185.5 7.7 185.5 3.5H164V35H175.5C175.967 32.4667 176.833 30.1 178.1 27.9C178.633 26.9 179.267 25.9333 180 25H183V47.5H180C179.267 46.5667 178.633 45.6 178.1 44.6C176.833 42.4 175.967 40.0333 175.5 37.5H164V68.5H187.5C187.5 64.3 188.567 60.4 190.7 56.8C191.633 55.2667 192.733 54 194 53H197V71H141.5V69.5ZM214.953 18V66.5L222.953 69.5V71H203.953V69.5L211.953 66.5V4.5L204.953 2.49999V0.999995H215.453C218.986 0.999995 221.753 1.63333 223.753 2.89999C225.753 4.16666 227.653 5.86666 229.453 7.99999L261.453 45.5V5.5L253.453 2.49999V0.999995H272.453V2.49999L264.453 5.5V72.5H261.453L214.953 18ZM320.504 69.5L326.504 68V3.5H315.004C315.004 7.56666 313.904 11.4667 311.704 15.2C310.771 16.7333 309.704 18 308.504 19H305.504V0.999995H364.004V19H361.004C359.737 18 358.637 16.7333 357.704 15.2C355.571 11.6 354.504 7.7 354.504 3.5H343.004V68L349.004 69.5V71H320.504V69.5ZM371.48 71V69.5L377.48 68V4L371.48 2.49999V0.999995H399.98V2.49999L393.98 4V35H415.48V4L409.48 2.49999V0.999995H437.98V2.49999L431.98 4V68L437.98 69.5V71H409.48V69.5L415.48 68V37.5H393.98V68L399.98 69.5V71H371.48ZM446.969 71V69.5L452.969 68V4L446.969 2.49999V0.999995H475.469V2.49999L469.469 4V68L475.469 69.5V71H446.969ZM484.469 69.5L490.469 68V4L484.469 2.49999V0.999995H510.969C522.302 0.999995 530.469 2.73333 535.469 6.2C540.469 9.6 542.969 14.3667 542.969 20.5C542.969 24.6333 541.869 28 539.669 30.6C537.469 33.1333 534.635 35.0333 531.169 36.3C527.502 37.7 523.602 38.4333 519.469 38.5V39C521.935 39.1333 524.102 39.5 525.969 40.1C530.635 41.5667 533.802 44.2 535.469 48L544.469 68L549.469 69.5V71H535.469C530.002 71 526.002 68.1667 523.469 62.5L513.469 40H506.969V68L513.969 69.5V71H484.469V69.5ZM510.969 37.5C515.635 37.5 519.302 36.0333 521.969 33.1C524.635 30.1667 525.969 25.9667 525.969 20.5C525.969 15.0333 524.635 10.8333 521.969 7.9C519.302 4.96666 515.635 3.5 510.969 3.5H506.969V37.5H510.969ZM588.012 72.5C578.145 72.5 570.678 70.2 565.612 65.6C560.545 60.9333 558.012 54.4 558.012 46V4L552.012 2.49999V0.999995H580.512V2.49999L574.512 4V46C574.512 54.6 575.845 60.7667 578.512 64.5C581.178 68.1667 585.012 70 590.012 70C593.078 70 595.978 69.0333 598.712 67.1C601.512 65.1 603.745 62.3 605.412 58.7C607.145 55.0333 608.012 50.8 608.012 46V5.5L600.012 2.49999V0.999995H619.012V2.49999L611.012 5.5V46C611.012 51.4 610.012 56.1 608.012 60.1C606.012 64.1 603.278 67.1667 599.812 69.3C596.345 71.4333 592.412 72.5 588.012 72.5ZM633.508 13.5V66.5L641.508 69.5V71H622.508V69.5L630.508 66.5V4L624.508 2.49999V0.999995H637.008C640.474 0.999995 643.208 1.73333 645.208 3.2C647.274 4.6 649.041 6.7 650.508 9.5L672.308 51.2L689.008 9.5C690.141 6.56666 691.674 4.43333 693.608 3.1C695.541 1.7 698.508 0.999995 702.508 0.999995H713.008V2.49999L707.008 4V68L713.008 69.5V71H684.508V69.5L690.508 68V13.5L667.008 72H664.008L633.508 13.5ZM713.016 69.5L721.016 66.5L748.516 -3.8147e-06H751.516L780.016 68L785.016 69.5V71H773.016C769.549 71 766.716 70.2333 764.516 68.7C762.316 67.1 760.682 65.0333 759.616 62.5L754.516 50.5H730.616L724.016 66.5L731.516 69.5V71H713.016V69.5ZM731.616 48H753.516L742.516 21.7L731.616 48ZM787.984 69.5L793.984 68V4L787.984 2.49999V0.999995H816.484V2.49999L810.484 4V68.5H831.984C831.984 64.3 833.051 60.4 835.184 56.8C836.118 55.2667 837.218 54 838.484 53H841.484V71H787.984V69.5ZM842.02 69.5L850.02 66.5L877.52 -3.8147e-06H880.52L909.02 68L914.02 69.5V71H902.02C898.553 71 895.72 70.2333 893.52 68.7C891.32 67.1 889.686 65.0333 888.62 62.5L883.52 50.5H859.62L853.02 66.5L860.52 69.5V71H842.02V69.5ZM860.62 48H882.52L871.52 21.7L860.62 48ZM916.988 71V69.5L922.988 68V4L916.988 2.49999V0.999995H945.488V2.49999L939.488 4V68L945.488 69.5V71H916.988Z" fill="url(#paint0_linear_462_211)"/>
<defs>
<linearGradient id="paint0_linear_462_211" x1="17.65" y1="1" x2="490.321" y2="369.902" gradientUnits="userSpaceOnUse">
<stop stop-color="#FFD600"/>
<stop offset="1" stop-color="#FF7A00"/>
</linearGradient>
</defs>
</svg>
