<svg width="222" height="44" viewBox="0 0 222 44" fill="none" xmlns="http://www.w3.org/2000/svg">
<path d="M22.321 36.2366H15.6381V35.5269C17.0181 35.5269 17.708 35.0143 17.708 33.9892V17.3708C17.708 15.5177 17.1955 14.0195 16.1704 12.8761C15.1453 11.7327 13.7062 11.161 11.8531 11.161C9.3298 11.161 7.49644 12.1467 6.35306 14.118C5.28853 15.8528 4.67741 18.5536 4.51971 22.2203C4.91398 20.9586 5.95879 20.3278 7.65415 20.3278C9.27066 20.3278 10.414 20.9192 11.0843 22.102C11.794 23.2454 12.1488 25.2167 12.1488 28.016C12.1488 33.457 10.2958 36.1774 6.58962 36.1774C4.57885 36.1774 3.10034 35.3297 2.15409 33.6344C1.24727 31.8996 0.793858 29.1003 0.793858 25.2364C0.793858 20.2292 1.54297 16.5428 3.04119 14.1772C4.77598 11.4173 7.71329 10.0373 11.8531 10.0373C17.7672 10.0373 20.7242 12.7184 20.7242 18.0804V34.4623C20.7242 34.8172 20.9016 35.0932 21.2565 35.2903C21.6113 35.4874 21.9661 35.5466 22.321 35.4677V36.2366ZM8.8961 27.0107C8.8961 23.4622 8.20613 21.688 6.82618 21.688C5.05197 21.688 4.16486 24.1719 4.16486 29.1397C4.16486 33.2401 4.93369 35.2903 6.47134 35.2903C8.08785 35.2903 8.8961 32.5304 8.8961 27.0107ZM42.5923 28.9623C42.5923 35.862 39.3593 39.3119 32.8933 39.3119C31.7105 39.3119 30.6459 39.2527 29.6997 39.1344C28.7929 39.0162 28.1226 38.957 27.6889 38.957C25.9935 38.957 24.791 39.2922 24.0813 39.9624C23.3716 40.6721 23.0168 41.9535 23.0168 43.8065H22.3071V38.4248C22.7014 37.7939 23.6476 37.4785 25.1459 37.4785C26.0921 37.4785 27.2749 37.5771 28.6943 37.7742C30.1531 38.0108 31.2768 38.1291 32.0653 38.1291C34.5492 38.1291 36.3628 37.4982 37.5062 36.2366C38.8073 34.7383 39.4578 32.1164 39.4578 28.3709C39.4578 23.9945 38.413 21.8063 36.3234 21.8063H35.0223V31.6236C35.0223 33.1218 34.5295 34.2849 33.5438 35.1129C32.7158 35.8226 31.6513 36.1774 30.3502 36.1774C28.1817 36.1774 26.5258 35.448 25.3824 33.9892C24.2785 32.5304 23.7265 30.5788 23.7265 28.1343C23.7265 24.507 24.8107 22.2991 26.9792 21.5106V15.7148C26.9792 14.4926 26.4272 13.8815 25.3233 13.8815C25.0473 13.8815 24.791 13.9603 24.5545 14.118V13.2901H37.8019C39.0636 13.2901 39.6944 12.5212 39.6944 10.9836H40.1675V16.6611H39.6944C39.6944 15.1234 39.1819 14.3546 38.1568 14.3546H35.0223V20.7418H36.2051C38.2948 20.7418 39.8521 21.3135 40.8772 22.4568C42.0206 23.7579 42.5923 25.9264 42.5923 28.9623ZM32.1836 20.7418V14.4137H29.8771V20.7418H32.1836ZM32.1836 32.4516V21.8063H30.2911C29.3054 21.8063 28.4972 22.378 27.8663 23.5214C27.1172 24.8619 26.7427 26.7544 26.7427 29.1988C26.7427 31.0519 27.0384 32.5107 27.6298 33.5752C28.2606 34.6003 29.0294 35.1129 29.9362 35.1129C31.4345 35.1129 32.1836 34.2258 32.1836 32.4516ZM64.6877 7.08032C64.6877 8.066 64.3132 8.55883 63.5641 8.55883C62.9332 8.55883 61.9081 7.96743 60.4887 6.78462C60.6859 8.16456 60.7845 8.85453 60.7845 8.85453C60.7845 10.1556 60.2719 10.8062 59.2468 10.8062C58.34 10.8062 57.8866 10.2148 57.8866 9.03195C57.8866 8.3617 58.064 7.71115 58.4188 7.08032C57.6303 7.47459 56.9009 7.67172 56.2306 7.67172C54.8901 7.67172 54.2199 7.1986 54.2199 6.25235C54.2199 5.34553 55.0873 4.89212 56.822 4.89212C57.2163 4.89212 57.6106 4.91184 58.0048 4.95126C56.6643 3.80788 55.9941 2.92078 55.9941 2.28994C55.9941 1.42255 56.4081 0.988856 57.236 0.988856C58.4188 0.988856 59.2271 2.03367 59.6608 4.1233C60.1339 2.2308 60.9224 1.28456 62.0264 1.28456C63.0121 1.28456 63.5049 1.69854 63.5049 2.52651C63.5049 3.59103 62.7164 4.57671 61.1393 5.48353C62.2827 5.52295 63.1895 5.72009 63.8598 6.07493C64.4117 6.39035 64.6877 6.72548 64.6877 7.08032ZM72.8491 16.7794H72.376C72.0606 15.084 71.41 14.2363 70.4243 14.2363H68.7684V34.1075C68.7684 34.5806 68.9655 34.9552 69.3598 35.2312C69.7935 35.5072 70.2075 35.6057 70.6018 35.5269V36H63.8598V35.5269C65.1214 35.5663 65.7522 35.0538 65.7522 33.9892V14.2363H62.0855C61.4547 14.2363 61.0013 14.3349 60.7253 14.532C62.8149 16.6216 63.8598 20.1306 63.8598 25.059C63.8598 32.5501 61.8687 36.2957 57.8866 36.2957C55.9546 36.2957 54.6536 35.6452 53.9833 34.3441C53.1948 35.724 51.9725 36.414 50.3166 36.414C46.3345 36.414 44.3434 32.9641 44.3434 26.0644C44.3434 17.2328 47.8524 12.8169 54.8704 12.8169C56.684 12.8169 58.064 13.0338 59.0102 13.4675C59.4045 13.2309 60.2522 13.1126 61.5533 13.1126H70.0104C71.4297 13.1126 72.2183 12.3044 72.376 10.6879H72.8491V16.7794ZM59.8973 5.72009C59.8973 5.24697 59.7002 5.0104 59.3059 5.0104C58.8328 5.0104 58.5963 5.24697 58.5963 5.72009C58.5963 6.19321 58.8131 6.42978 59.2468 6.42978C59.6805 6.42978 59.8973 6.19321 59.8973 5.72009ZM57.1769 13.9998C56.4672 13.7632 55.7378 13.6449 54.9887 13.6449C53.175 13.6449 51.6374 14.2955 50.3757 15.5965C48.9958 17.0553 48.2467 18.9873 48.1284 21.3923C48.7592 20.6826 49.6069 20.3278 50.6714 20.3278C51.46 20.3278 52.2485 20.5249 53.0371 20.9192C53.1159 19.5787 53.589 18.1396 54.4564 16.6019C55.3238 15.0249 56.2306 14.1575 57.1769 13.9998ZM60.7253 25.1773C60.7253 19.8547 59.9565 16.4245 58.4188 14.8869C56.5263 16.0697 55.5801 20.0321 55.5801 26.7741C55.5801 32.4121 56.3489 35.2312 57.8866 35.2312C58.5963 35.2312 59.2271 34.5215 59.7791 33.1021C60.4099 31.2885 60.7253 28.6469 60.7253 25.1773ZM52.3274 28.5483C52.3274 23.8959 51.5585 21.5697 50.0209 21.5697C48.4832 21.5697 47.7144 23.6199 47.7144 27.7203C47.7144 32.7276 48.4832 35.2312 50.0209 35.2312C51.5585 35.2312 52.3274 33.0036 52.3274 28.5483ZM114.762 36.828H107.961V36.2366C109.459 36.2366 110.208 35.6254 110.208 34.4032V11.3384C110.208 8.6574 108.67 7.31688 105.595 7.31688C104.057 7.31688 102.855 7.75058 101.987 8.61797C101.159 9.48537 100.745 10.5499 100.745 11.8116V13.2901H103.643C104.865 13.2901 105.477 12.5015 105.477 10.9244H106.009V16.6611H105.477C105.477 15.1234 104.984 14.3546 103.998 14.3546H100.745V20.7418H101.928C104.254 20.7418 105.891 21.3332 106.837 22.516C107.823 23.6594 108.315 25.8081 108.315 28.9623C108.315 35.8226 105.082 39.2527 98.6163 39.2527C97.4335 39.2527 96.369 39.1936 95.4227 39.0753C94.5159 38.9964 93.8457 38.957 93.412 38.957C91.6377 38.957 90.4155 39.2922 89.7452 39.9624C89.1144 40.6327 88.799 41.914 88.799 43.8065H88.0893V38.4248C88.4442 37.7545 89.3707 37.4194 90.8689 37.4194C91.8152 37.4194 92.998 37.5179 94.4173 37.7151C95.8761 37.9516 96.9998 38.0699 97.7883 38.0699C100.312 38.0699 102.145 37.4391 103.288 36.1774C104.59 34.7186 105.24 32.0967 105.24 28.3117C105.24 23.9748 104.176 21.8063 102.046 21.8063H100.745V31.6236C100.745 33.1613 100.253 34.3244 99.2669 35.1129C98.4389 35.8226 97.3941 36.1774 96.1324 36.1774C93.9639 36.1774 92.308 35.448 91.1646 33.9892C90.0212 32.5304 89.4495 30.5788 89.4495 28.1343C89.4495 24.7042 90.5338 22.516 92.7023 21.5697V15.7148C92.7023 15.2023 92.5051 14.7883 92.1109 14.4729C91.756 14.118 91.342 13.9406 90.8689 13.9406C90.6324 13.9406 90.4352 13.98 90.2775 14.0589V13.2901H97.9658C98.0052 10.7667 98.7149 8.97282 100.095 7.90829C101.317 6.96204 103.17 6.48892 105.654 6.48892C107.941 6.48892 109.754 7.00147 111.095 8.02657C112.475 9.01224 113.165 10.2936 113.165 11.8707V34.8172C113.165 35.724 113.697 36.2168 114.762 36.2957V36.828ZM97.9658 20.7418V14.3546H95.6002V20.7418H97.9658ZM97.9658 32.5107V21.8063H96.0141C95.0285 21.8063 94.2202 22.3977 93.5894 23.5805C92.8403 24.921 92.4657 26.8135 92.4657 29.258C92.4657 31.1111 92.7614 32.5501 93.3528 33.5752C93.9836 34.5609 94.7525 35.0538 95.6593 35.0538C97.1969 35.0538 97.9658 34.2061 97.9658 32.5107ZM143.515 29.9677C143.515 33.5161 142.234 36.3351 139.671 38.4248C137.266 40.3567 134.171 41.3226 130.386 41.3226C125.497 41.3226 121.929 40.4158 119.682 38.6022C117.277 36.5914 116.074 33.2993 116.074 28.7257C116.074 25.5321 116.607 23.0088 117.671 21.1557C118.854 19.145 120.51 18.1396 122.639 18.1396V19.0267C120.194 19.0267 118.972 22.4371 118.972 29.258C118.972 36.552 122.639 40.199 129.972 40.199C133.363 40.199 135.945 39.1739 137.72 37.1237C139.533 35.1129 140.44 32.215 140.44 28.43C140.44 24.0931 139.376 21.9246 137.247 21.9246C136.34 21.9246 135.571 22.3188 134.94 23.1074C134.349 23.8959 134.053 24.783 134.053 25.7687V34.1666C134.053 35.1129 134.506 35.5663 135.413 35.5269V36H129.322V35.4677C130.505 35.4677 131.096 34.8763 131.096 33.6935V14.4729H126.779V34.0484C126.779 34.9552 127.173 35.4086 127.962 35.4086V36H122.047V35.4677C123.27 35.4677 123.881 34.8566 123.881 33.6344V15.6557C123.881 14.394 123.132 13.8618 121.633 14.0589V13.3492H137.897C138.567 13.3492 139.119 13.1324 139.553 12.6987C139.987 12.265 140.144 11.6736 140.026 10.9244H140.558V16.7202H139.967C139.967 15.8528 139.849 15.2614 139.612 14.946C139.376 14.6306 138.883 14.4729 138.134 14.4729H134.053V22.7525C134.802 21.2543 136.005 20.5052 137.661 20.5052C139.711 20.5052 141.189 21.2543 142.096 22.7525C143.042 24.2508 143.515 26.6558 143.515 29.9677ZM166.234 23.8762C166.234 31.9587 163.691 36 158.605 36H144.647V35.4677C145.87 35.4677 146.481 34.8369 146.481 33.5752V15.3008C146.481 14.2363 145.929 13.7435 144.825 13.8223V13.2901H151.33V13.8223C150.069 13.8223 149.438 14.4926 149.438 15.8331V34.8763H154.169V15.3008C154.169 14.1575 153.676 13.6843 152.691 13.8815V13.2901H158.427C163.632 13.2901 166.234 16.8188 166.234 23.8762ZM163.218 24.1128C163.218 20.3672 162.764 17.7256 161.857 16.188C161.108 14.8869 159.945 14.2363 158.368 14.2363H157.304V34.8763H158.368C161.601 34.8763 163.218 31.2885 163.218 24.1128ZM195.023 24.4676C195.023 32.3924 192.953 36.3548 188.813 36.3548C187.867 36.3548 187.295 36.1774 187.098 35.8226V34.3441C187.65 34.9749 188.261 35.2903 188.931 35.2903C189.72 35.2903 190.429 34.4623 191.06 32.8064C191.73 30.9533 192.066 28.5483 192.066 25.5913C192.066 21.0178 191.553 17.8439 190.528 16.0697C189.7 14.6503 188.34 13.9406 186.447 13.9406C185.304 13.9406 184.515 14.118 184.082 14.4729C185.067 15.0249 185.876 16.3062 186.506 18.317C187.137 20.2884 187.453 22.5357 187.453 25.059C187.453 32.5896 185.383 36.3548 181.243 36.3548C179.666 36.3548 178.404 35.7043 177.458 34.4032C176.709 35.7832 175.506 36.4731 173.85 36.4731C169.868 36.4731 167.877 33.0627 167.877 26.2418C167.877 17.3708 171.426 12.9352 178.522 12.9352C180.533 12.9352 181.854 13.1718 182.485 13.6449C183.195 13.2112 184.476 12.9944 186.329 12.9944C192.125 12.9944 195.023 16.8188 195.023 24.4676ZM180.77 14.118C180.021 13.9209 179.291 13.8223 178.582 13.8223C176.689 13.8223 175.132 14.4729 173.909 15.774C172.569 17.1539 171.8 19.145 171.603 21.7472C172.313 20.8798 173.259 20.4461 174.442 20.4461C175.309 20.4461 176.039 20.6826 176.63 21.1557C176.591 19.8547 177.024 18.3959 177.931 16.7794C178.877 15.1628 179.824 14.2757 180.77 14.118ZM184.318 25.9461C184.318 20.0321 183.569 16.3851 182.071 15.0051C180.139 16.2668 179.173 20.1898 179.173 26.7741C179.173 32.4516 179.942 35.2903 181.479 35.2903C182.15 35.2903 182.761 34.5609 183.313 33.1021C183.983 31.3673 184.318 28.982 184.318 25.9461ZM175.802 28.7257C175.802 24.0733 175.092 21.7472 173.673 21.7472C172.017 21.7472 171.189 23.7579 171.189 27.7795C171.189 32.7867 171.958 35.2903 173.496 35.2903C175.033 35.2903 175.802 33.1021 175.802 28.7257ZM221.064 23.6988C221.064 32.0179 218.856 36.1774 214.44 36.1774C211.247 36.1774 209.65 34.6398 209.65 31.5645V18.5536C209.65 15.4783 208.506 13.9406 206.22 13.9406C202.789 13.9406 200.858 16.3654 200.424 21.2149C201.331 20.3081 202.375 19.8547 203.558 19.8547C206.555 19.8547 208.053 22.3188 208.053 27.2472C208.053 33.2401 206.18 36.2366 202.435 36.2366C198.65 36.2366 196.757 32.7867 196.757 25.887C196.757 17.0948 199.813 12.6987 205.924 12.6987C210.537 12.6987 212.843 14.6109 212.843 18.4353V32.2742C212.843 34.0878 213.474 34.9946 214.736 34.9946C215.524 34.9946 216.234 34.1469 216.865 32.4516C217.535 30.5197 217.87 27.9175 217.87 24.645C217.87 21.0178 217.515 18.2382 216.806 16.3062C216.175 14.5714 215.327 13.7041 214.263 13.7041C213.947 13.7041 213.612 13.7829 213.257 13.9406V12.6987C213.652 12.6198 214.026 12.5804 214.381 12.5804C216.392 12.5804 218.008 13.5463 219.23 15.4783C220.453 17.4102 221.064 20.1504 221.064 23.6988ZM204.564 28.0752C204.564 23.4228 203.893 21.0966 202.553 21.0966C200.936 21.0966 200.128 23.3045 200.128 27.7203C200.128 32.491 200.897 34.8763 202.435 34.8763C203.854 34.8763 204.564 32.6093 204.564 28.0752Z" fill="url(#paint0_linear_467_343)"/>
<defs>
<linearGradient id="paint0_linear_467_343" x1="-10" y1="22.5" x2="232" y2="22.5" gradientUnits="userSpaceOnUse">
<stop stop-color="#052DFF"/>
<stop offset="1" stop-color="#461B09"/>
</linearGradient>
</defs>
</svg>
