<svg width="352" height="40" viewBox="0 0 352 40" fill="none" xmlns="http://www.w3.org/2000/svg">
<path d="M43.1631 7.42972C43.1631 9.07539 42.723 10.4532 41.8427 11.563C40.9625 12.6346 39.9674 13.1704 38.8576 13.1704C36.8674 13.1704 35.4131 12.6346 34.4946 11.563V12.9982H31.1076V16.6723C32.4088 15.8686 33.7292 15.4667 35.0687 15.4667C37.0971 15.4667 38.7045 16.2704 39.8909 17.8778C41.039 19.3321 41.6131 21.1692 41.6131 23.3889C41.6131 26.4506 40.9434 28.9957 39.6039 31.0241C37.9199 33.5883 35.2218 35.5592 31.5094 36.937C28.486 38.0469 25.3095 38.6018 21.9798 38.6018C16.0095 38.6018 11.1107 37.4154 7.2836 35.0426C3.03547 32.4401 0.911401 28.7661 0.911401 24.0204C0.911401 20.6525 2.63362 17.5908 6.07805 14.8352L8.02989 17.6482C7.34101 17.4568 6.42249 18.0309 5.27435 19.3704C4.16448 20.6716 3.60954 21.992 3.60954 23.3315C3.60954 26.2401 4.26015 28.5556 5.56138 30.2778C6.63299 31.6938 8.29779 32.9185 10.5558 33.9518C13.962 35.4827 17.8848 36.2481 22.3243 36.2481C26.9169 36.2481 30.7057 35.2722 33.6909 33.3204C37.1353 31.0241 38.8576 27.7327 38.8576 23.4463C38.8576 19.9254 37.6137 18.1649 35.1261 18.1649C34.0545 18.1649 33.136 18.5476 32.3705 19.313C31.6051 20.0784 31.2224 21.0161 31.2224 22.126V32.1148H28.5817V13.0556H23.4724V32.1148H20.8891V14.376C20.8891 13.4575 20.449 12.9982 19.5687 12.9982C18.5354 12.9982 18.0187 13.5149 18.0187 14.5482V32H8.20212V9.95564H11.1299V29.4167H15.4928V14.1464C15.4928 13.0365 15.8564 12.0988 16.5836 11.3334C17.3107 10.5297 18.1527 10.1279 19.1095 10.1279C20.1045 10.1279 20.9656 10.4723 21.6928 11.1612C21.8076 10.8933 22.1712 10.6062 22.7835 10.3001H28.4095C27.9502 8.6544 27.7206 7.50626 27.7206 6.85565C27.7206 4.78899 28.6008 3.21986 30.3613 2.14825C31.8156 1.26801 33.6718 0.827888 35.9298 0.827888C37.9199 0.827888 39.623 1.4211 41.039 2.60751C42.4551 3.79393 43.1631 5.40133 43.1631 7.42972ZM35.3557 2.95195C33.2891 3.44948 32.0835 3.77479 31.7391 3.92788C30.6675 4.50195 30.1317 5.49701 30.1317 6.91305C30.1317 8.36737 30.5718 9.49638 31.452 10.3001H33.7483C33.4039 9.53465 33.2317 8.597 33.2317 7.48712C33.2317 5.80318 33.9397 4.29146 35.3557 2.95195ZM40.6372 7.37231C40.6372 6.53034 40.4076 5.78404 39.9483 5.13343C39.489 4.44454 38.8958 4.1001 38.1687 4.1001C36.4082 4.1001 35.5279 5.28651 35.5279 7.65935C35.5279 8.46305 35.815 9.17107 36.3891 9.78341C36.9631 10.3575 37.652 10.6445 38.4557 10.6445C39.91 10.6445 40.6372 9.55378 40.6372 7.37231ZM65.4505 32.0574H55.1173L54.4858 30.45C53.2994 32.0574 51.845 32.8611 50.1228 32.8611C47.75 32.8611 45.9704 31.7321 44.784 29.4741C43.8272 27.6753 43.3488 25.3982 43.3488 22.6426C43.3488 19.0834 44.0568 16.1747 45.4728 13.9167C47.0037 11.3525 49.1852 10.0704 52.0173 10.0704C55.0407 10.0704 57.4135 11.2377 59.1358 13.5723C60.7049 15.7155 61.4895 18.471 61.4895 21.8389C61.4895 24.5562 60.7432 27.0821 59.2506 29.4167H63.0394V10.0704H65.4505V32.0574ZM58.9635 20.6334C58.9635 18.4902 58.466 16.6723 57.4709 15.1797C56.2845 13.4575 54.658 12.5964 52.5913 12.5964C49.5296 12.5964 47.5586 13.955 46.6784 16.6723C47.4821 15.8303 48.5537 15.4093 49.8932 15.4093C51.8833 15.4093 53.4716 16.213 54.658 17.8204C55.8444 19.4278 56.4376 21.3988 56.4376 23.7334C56.4376 26.0297 55.921 28.058 54.8876 29.8185L55.9784 29.4167H56.0932C57.0882 27.8475 57.7197 26.7185 57.9876 26.0297C58.6382 24.4988 58.9635 22.7 58.9635 20.6334ZM53.6821 23.676C53.6821 19.8105 52.3234 17.8778 49.6062 17.8778C47.616 17.8778 46.3914 19.1982 45.9321 21.8389V22.9871C45.9321 27.5796 47.329 29.8759 50.1228 29.8759C51.271 29.8759 52.1512 29.2636 52.7636 28.0389C53.3759 26.929 53.6821 25.4747 53.6821 23.676ZM81.1568 12.4816H78.3438V32H75.8753V12.539H70.9383V32.0574H68.1828V10.013H81.1568V12.4816ZM106.364 9.89823H103.608V9.15193C103.608 6.97046 102.231 5.87972 99.4751 5.87972C98.0973 5.87972 97.064 6.2433 96.3751 6.97046C95.8393 7.54453 95.5714 8.15687 95.5714 8.80749V9.95564H99.0158V12.5964H95.4566V32H92.9307V12.5964H86.1566V32H83.5733V9.95564H92.8732C92.8732 8.04206 93.4856 6.47293 94.7103 5.24824C95.9732 3.98529 97.6955 3.35381 99.8769 3.35381C102.02 3.35381 103.704 4.00442 104.929 5.30565C105.886 6.37725 106.364 7.60194 106.364 8.97971V9.89823ZM148.23 24.1352C148.23 27.35 147.465 30.2012 145.934 32.6889C144.135 35.6358 141.705 37.1092 138.643 37.1092C134.587 37.1092 131.754 35.5784 130.147 32.5167C129.42 32.708 128.693 32.8994 127.966 33.0907C127.238 33.2821 126.53 33.3778 125.842 33.3778C123.086 33.3778 120.828 32.7463 119.067 31.4833C117.766 30.5648 116.771 29.1488 116.082 27.2352C115.508 25.6661 115.221 24.0395 115.221 22.3556C115.221 19.9828 115.489 18.3371 116.025 17.4186C116.599 16.4618 117.728 15.926 119.412 15.8112C119.412 13.2853 119.967 11.1038 121.077 9.26675C122.455 7.00873 124.426 5.87972 126.99 5.87972C131.927 5.87972 134.797 9.1328 135.601 15.6389H136.29V10.2427H138.758V16.1556C138.835 15.926 139.179 15.6772 139.791 15.4093C140.404 15.1031 141.093 14.9501 141.858 14.9501C143.848 14.9501 145.437 15.8877 146.623 17.763C147.695 19.4852 148.23 21.6093 148.23 24.1352ZM132.845 15.5241C132.845 13.5723 132.271 11.9075 131.123 10.5297C130.013 9.11366 128.597 8.40564 126.875 8.40564C124.885 8.40564 123.717 8.97971 123.373 10.1279C125.019 9.82168 125.88 9.6686 125.956 9.6686C127.372 9.6686 128.693 10.3383 129.917 11.6779C131.027 12.9408 131.582 14.2229 131.582 15.5241H132.845ZM129.229 16.8445C129.229 15.5815 128.922 14.5099 128.31 13.6297C127.583 12.6346 126.569 12.1371 125.267 12.1371C123.201 12.1371 122.167 13.7062 122.167 16.8445C122.167 18.184 122.493 19.313 123.143 20.2315C123.832 21.15 124.789 21.6093 126.014 21.6093C127.009 21.6093 127.813 21.0926 128.425 20.0593C128.961 19.1408 129.229 18.0692 129.229 16.8445ZM133.19 18.05H131.64C131.525 19.4661 131.085 20.7099 130.319 21.7815C129.286 23.3506 127.793 24.1352 125.842 24.1352C124.272 24.1352 122.895 23.542 121.708 22.3556C120.56 21.1692 119.929 19.8105 119.814 18.2797C118.742 17.9352 118.092 18.6433 117.862 20.4037C117.785 20.9395 117.747 21.6476 117.747 22.5278C117.747 24.9772 118.379 26.929 119.642 28.3833C121.019 30.029 123.029 30.8519 125.669 30.8519C128.808 30.8519 130.932 29.3401 132.042 26.3167C132.616 24.7858 132.998 22.0303 133.19 18.05ZM145.59 22.9871C145.59 19.3896 144.327 17.5908 141.801 17.5908C141.15 17.5908 140.5 17.8396 139.849 18.3371C139.083 18.8729 138.701 19.5235 138.701 20.2889V32H136.29V17.9352H135.486C135.601 18.2414 135.658 18.7963 135.658 19.6C135.658 21.6667 135.39 23.6951 134.854 25.6852C134.166 28.2877 133.171 30.029 131.869 30.9093C133.017 32.2488 133.725 33.0142 133.993 33.2056C135.027 34.0475 136.232 34.4685 137.61 34.4685C140.212 34.4685 142.183 33.4735 143.523 31.4833C144.901 29.4549 145.59 26.6229 145.59 22.9871ZM176.327 12.5964H172.538V32H169.955V12.5964H165.305C167.601 14.8161 168.749 18.0501 168.749 22.2982C168.749 24.9772 168.385 27.0247 167.658 28.4408C166.855 29.9716 165.821 31.1963 164.558 32.1148C163.334 33.0716 162.262 33.55 161.343 33.55C160.31 33.55 159.411 33.2821 158.645 32.7463C158.186 33.0142 157.459 33.1481 156.464 33.1481C154.397 33.1481 152.79 32.0383 151.642 29.8185C150.608 27.8284 150.092 25.226 150.092 22.0111C150.092 17.9926 150.972 14.9118 152.732 12.7686C154.263 10.855 156.234 9.89823 158.645 9.89823C160.521 9.89823 162.185 10.3192 163.64 11.1612V9.89823H176.327V12.5964ZM158.588 12.3093C155.488 12.3093 153.593 14.1081 152.905 17.7056C153.708 17.0167 154.761 16.6723 156.062 16.6723C156.368 16.6723 156.617 16.6914 156.808 16.7297C156.885 14.8927 157.478 13.4192 158.588 12.3093ZM166.395 22.5852C166.395 17.1124 164.884 13.8019 161.86 12.6538C160.329 13.4192 159.372 15.1031 158.99 17.7056C161.401 18.7772 162.606 20.9778 162.606 24.3074C162.606 27.1778 162.109 29.2445 161.114 30.5074C161.267 30.5457 161.497 30.5648 161.803 30.5648C163.066 30.5648 164.137 29.7611 165.018 28.1537C165.936 26.5463 166.395 24.6901 166.395 22.5852ZM160.195 24.6519C160.195 22.8531 159.793 21.3988 158.99 20.2889C158.224 19.1791 157.229 18.6241 156.005 18.6241C154.321 18.6241 153.211 19.5235 152.675 21.3223C152.637 21.9729 152.618 22.7957 152.618 23.7908C152.618 28.3451 154.129 30.6222 157.153 30.6222C159.181 30.6222 160.195 28.6321 160.195 24.6519ZM192.485 7.54453H181.348V4.96121H192.485V7.54453ZM196.848 27.6945C196.848 30.7562 196.121 33.0907 194.667 34.6981C193.212 36.3055 191.203 37.1092 188.639 37.1092C187.605 37.1092 186.476 37.0327 185.252 36.8796C184.065 36.7265 183.032 36.65 182.152 36.65C179.434 36.65 178.133 37.5111 178.248 39.2333H175.32C174.976 35.7506 177.521 34.0093 182.955 34.0093C183.415 34.0093 184.199 34.0858 185.309 34.2389C186.457 34.392 187.701 34.4685 189.041 34.4685C191.031 34.4685 192.428 33.7031 193.231 32.1722C193.805 31.0241 194.092 29.2827 194.092 26.9482C194.092 22.3556 192.906 20.0593 190.533 20.0593C189.155 20.0593 188.179 20.8247 187.605 22.3556V32H185.194V12.4816H181.405V32H178.822V9.95564H195.413V12.4816H187.605V18.7963C188.409 18.1457 189.309 17.8204 190.304 17.8204C194.667 17.8204 196.848 21.1118 196.848 27.6945ZM219.025 23.2741C219.025 30.4309 215.619 34.0093 208.806 34.0093C206.433 34.0093 204.558 33.971 203.18 33.8944C201.841 33.8179 200.712 33.7796 199.793 33.7796C198.454 33.7796 197.593 33.8753 197.21 34.0667C196.712 34.3346 196.483 35.0043 196.521 36.0759H193.938C193.899 35.8463 193.88 35.5975 193.88 35.3296C193.88 32.7272 195.813 31.4259 199.678 31.4259C200.023 31.4259 200.463 31.4259 200.999 31.4259C201.535 31.4642 201.898 31.4833 202.09 31.4833C199.678 30.1438 198.473 27.5605 198.473 23.7334C198.473 20.5568 199.277 18.2223 200.884 16.7297V9.95564H216.843V12.5964H209.897V14.8927H211.734C216.594 14.8927 219.025 17.6865 219.025 23.2741ZM207.256 14.8927V12.5964H203.295V15.2945C203.984 15.0266 204.807 14.8927 205.764 14.8927H207.256ZM207.256 26.7185V17.2463H205.591C204.29 17.2463 203.142 17.8013 202.147 18.9112C201.152 20.021 200.654 21.4753 200.654 23.2741C200.654 24.8815 200.961 26.2401 201.573 27.35C202.3 28.6512 203.314 29.3019 204.615 29.3019C205.572 29.3019 206.242 29.1296 206.625 28.7852C207.046 28.4408 207.256 27.7519 207.256 26.7185ZM216.556 23.0445C216.556 19.1791 214.987 17.2463 211.849 17.2463H209.897V27.7519C209.897 29.5889 209.265 30.9093 208.003 31.713H208.634C210.969 31.713 212.863 30.8901 214.317 29.2445C215.81 27.5988 216.556 25.5321 216.556 23.0445ZM259.121 9.09453H255.849V7.65935C255.849 5.4396 254.223 4.32973 250.97 4.32973C249.821 4.32973 248.845 4.65504 248.042 5.30565C247.276 5.95627 246.894 6.79824 246.894 7.83157V9.95564H255.218V12.5964H246.721V16.9019C247.563 16.0599 248.558 15.6389 249.707 15.6389C254.376 15.6389 256.71 19.4278 256.71 27.0056C256.71 30.5265 256.079 32.9759 254.816 34.3537C253.553 35.7315 251.257 36.4204 247.927 36.4204C246.97 36.4204 245.956 36.3821 244.884 36.3055C243.851 36.2673 243.066 36.2481 242.531 36.2481C238.474 36.2481 236.522 37.4537 236.675 39.8648L233.747 39.9796C233.633 39.7117 233.575 39.4247 233.575 39.1185C233.575 37.8173 234.207 36.6308 235.47 35.5592C236.962 34.2963 239.01 33.6648 241.612 33.6648C242.531 33.6648 243.43 33.7222 244.31 33.837C245.191 33.9901 246.358 34.0667 247.812 34.0667C250.376 34.0667 252.079 33.4352 252.921 32.1722C253.649 31.1389 254.012 29.2445 254.012 26.4889C254.012 20.863 252.596 18.05 249.764 18.05C248.692 18.05 247.678 18.9686 246.721 20.8056V32.0574H244.023V12.5964H239.373V32.0574H236.79V9.95564H243.794V8.46305C243.794 6.47293 244.483 4.88466 245.86 3.69825C247.238 2.47356 248.999 1.86122 251.142 1.86122C253.4 1.86122 255.294 2.43529 256.825 3.58343C258.356 4.69331 259.121 6.09022 259.121 7.77416V9.09453ZM283.028 20.4612C283.028 25.513 281.727 29.0914 279.124 31.1963C278.014 32.0765 276.713 32.5167 275.221 32.5167C274.379 32.5167 273.403 32.287 272.293 31.8278C271.451 32.2488 270.628 32.4593 269.824 32.4593C268.523 32.4593 267.662 32.1914 267.241 31.6556C266.514 31.9235 265.825 32.0574 265.174 32.0574C260.697 32.0574 258.458 28.4216 258.458 21.15C258.458 18.2797 258.859 15.8877 259.663 13.9741C260.352 12.3285 261.366 10.989 262.706 9.95564C264.045 8.88403 265.5 8.34823 267.069 8.34823C268.982 8.34823 270.705 8.75008 272.235 9.55378C272.35 9.28588 272.446 9.01798 272.522 8.75008C272.752 8.44391 273.364 8.29083 274.359 8.29083C280.138 8.29083 283.028 12.3476 283.028 20.4612ZM267.413 10.7019H267.356C264.562 10.7019 262.572 12.4624 261.385 15.9834C262.342 15.371 263.49 15.0649 264.83 15.0649H265.232C265.461 13.6106 266.188 12.1562 267.413 10.7019ZM275.106 21.0926C275.106 15.6964 273.651 12.4241 270.743 11.276C268.867 12.2328 267.872 13.8211 267.758 16.0408C269.977 17.4568 271.087 19.8679 271.087 23.2741C271.087 25.9914 270.609 28.0963 269.652 29.5889C269.767 29.6272 269.977 29.6463 270.284 29.6463C271.585 29.6463 272.714 28.8043 273.671 27.1204C274.627 25.3982 275.106 23.3889 275.106 21.0926ZM280.732 20.0593C280.732 13.7445 278.914 10.5871 275.278 10.5871C274.742 10.5871 274.302 10.6828 273.958 10.8741C276.254 13.1322 277.402 16.5957 277.402 21.2649C277.402 25.092 276.426 28.0389 274.474 30.1056C274.895 30.3352 275.278 30.45 275.622 30.45C277.345 30.45 278.665 29.2827 279.583 26.9482C280.349 25.0346 280.732 22.7383 280.732 20.0593ZM268.906 23.963C268.906 22.2408 268.58 20.7673 267.93 19.5426C267.126 18.0883 266.055 17.3612 264.715 17.3612C263.222 17.3612 261.94 18.1266 260.869 19.6575C260.83 20.3081 260.811 21.3031 260.811 22.6426C260.811 25.4747 261.481 27.4457 262.821 28.5556C263.739 29.321 264.638 29.7037 265.519 29.7037C266.552 29.7037 267.394 29.0148 268.045 27.6371C268.619 26.4506 268.906 25.226 268.906 23.963ZM310.295 21.8389C310.295 28.6895 307.884 32.1148 303.062 32.1148C300.153 32.1148 298.699 29.7803 298.699 25.1111C298.699 24.4988 298.642 23.5803 298.527 22.3556C298.45 21.0926 298.412 20.1933 298.412 19.6575C298.412 14.7587 296.671 12.3093 293.188 12.3093C291.007 12.3093 289.342 13.534 288.194 15.9834C289.112 15.3328 290.146 15.0075 291.294 15.0075C293.513 15.0075 295.236 15.8686 296.46 17.5908C297.532 19.1217 298.068 21.1692 298.068 23.7334C298.068 26.3358 297.551 28.4216 296.518 29.9907C295.523 31.5599 294.049 32.3444 292.097 32.3444C290.069 32.3444 288.385 31.5407 287.046 29.9333C285.591 28.2111 284.864 25.8 284.864 22.7C284.864 19.3321 285.476 16.5192 286.701 14.2612C288.194 11.4291 290.394 10.013 293.303 10.013C295.867 10.013 297.742 10.7593 298.929 12.2519L298.814 9.84082C299.197 9.76428 300.039 9.72601 301.34 9.72601C304.516 9.72601 306.87 11.0081 308.401 13.5723C309.664 15.6389 310.295 18.3945 310.295 21.8389ZM307.655 21.4945C307.655 15.371 305.684 12.3093 301.742 12.3093C300.67 12.3093 299.886 12.4816 299.388 12.826C300.307 14.2803 300.766 16.4809 300.766 19.4278C300.766 20.2315 300.804 21.2074 300.881 22.3556C300.995 23.4655 301.053 24.3266 301.053 24.9389C301.053 26.0871 301.302 27.1013 301.799 27.9815C302.335 29.0148 303.062 29.5315 303.981 29.5315C305.129 29.5315 306.047 28.6895 306.736 27.0056C307.349 25.513 307.655 23.676 307.655 21.4945ZM295.312 23.7334C295.312 19.4852 294.049 17.3612 291.523 17.3612C288.921 17.3612 287.466 19.447 287.16 23.6185C287.466 27.8667 289.036 29.9907 291.868 29.9907C294.164 29.9907 295.312 27.905 295.312 23.7334ZM330.195 32H318.598V31.0241C318.139 31.7895 317.355 32.1722 316.245 32.1722C315.326 32.1722 314.58 31.7704 314.006 30.9667C313.47 30.2778 313.202 29.4358 313.202 28.4408V9.95564H315.843V27.5222C315.843 28.7469 316.226 29.3593 316.991 29.3593C317.91 29.3593 318.369 28.8043 318.369 27.6945V10.013H320.952V29.4167H327.669V9.95564H330.195V32ZM346.625 7.54453H335.488V4.96121H346.625V7.54453ZM351.218 20.0019C351.218 23.9439 350.835 26.7951 350.07 28.5556C349.036 30.8519 347.104 32 344.271 32H334.225V9.95564H336.866V29.4167H339.22V9.95564H343.008C345.534 9.95564 347.505 10.7593 348.921 12.3667C350.452 14.1272 351.218 16.6723 351.218 20.0019ZM348.577 20.0019C348.577 16.8636 347.965 14.797 346.74 13.8019C345.898 13.1513 344.31 12.826 341.975 12.826V29.4167C344.731 29.5698 346.51 29.034 347.314 27.8093C348.156 26.5846 348.577 23.9821 348.577 20.0019Z" fill="white"/>
</svg>
