<svg width="435" height="39" viewBox="0 0 435 39" fill="none" xmlns="http://www.w3.org/2000/svg">
<path d="M0.65625 20.8008L4.23047 20.4883C4.39974 21.9206 4.79036 23.099 5.40234 24.0234C6.02734 24.9349 6.99089 25.6771 8.29297 26.25C9.59505 26.8099 11.0599 27.0898 12.6875 27.0898C14.1328 27.0898 15.4089 26.875 16.5156 26.4453C17.6224 26.0156 18.4427 25.4297 18.9766 24.6875C19.5234 23.9323 19.7969 23.112 19.7969 22.2266C19.7969 21.3281 19.5365 20.5469 19.0156 19.8828C18.4948 19.2057 17.6354 18.6393 16.4375 18.1836C15.6693 17.8841 13.9701 17.4219 11.3398 16.7969C8.70964 16.1589 6.86719 15.5599 5.8125 15C4.44531 14.2839 3.42318 13.3984 2.74609 12.3438C2.08203 11.276 1.75 10.0846 1.75 8.76953C1.75 7.32422 2.16016 5.97656 2.98047 4.72656C3.80078 3.46354 4.9987 2.50651 6.57422 1.85547C8.14974 1.20443 9.90104 0.878906 11.8281 0.878906C13.9505 0.878906 15.819 1.22396 17.4336 1.91406C19.0612 2.59115 20.3112 3.59375 21.1836 4.92188C22.056 6.25 22.5247 7.75391 22.5898 9.43359L18.957 9.70703C18.7617 7.89714 18.0977 6.52995 16.9648 5.60547C15.8451 4.68099 14.1849 4.21875 11.9844 4.21875C9.69271 4.21875 8.01953 4.64193 6.96484 5.48828C5.92318 6.32161 5.40234 7.33073 5.40234 8.51562C5.40234 9.54427 5.77344 10.3906 6.51562 11.0547C7.24479 11.7188 9.14583 12.4023 12.2188 13.1055C15.3047 13.7956 17.4206 14.401 18.5664 14.9219C20.2331 15.6901 21.4635 16.6667 22.2578 17.8516C23.0521 19.0234 23.4492 20.3776 23.4492 21.9141C23.4492 23.4375 23.013 24.8763 22.1406 26.2305C21.2682 27.5716 20.0117 28.6198 18.3711 29.375C16.7435 30.1172 14.9076 30.4883 12.8633 30.4883C10.2721 30.4883 8.09766 30.1107 6.33984 29.3555C4.59505 28.6003 3.22135 27.4674 2.21875 25.957C1.22917 24.4336 0.708333 22.7148 0.65625 20.8008ZM28.1367 30V9.25781H31.3008V12.4023C32.1081 10.931 32.8503 9.96094 33.5273 9.49219C34.2174 9.02344 34.9727 8.78906 35.793 8.78906C36.9779 8.78906 38.1823 9.16667 39.4062 9.92188L38.1953 13.1836C37.3359 12.6758 36.4766 12.4219 35.6172 12.4219C34.849 12.4219 34.1589 12.6562 33.5469 13.125C32.9349 13.5807 32.4987 14.2188 32.2383 15.0391C31.8477 16.2891 31.6523 17.6562 31.6523 19.1406V30H28.1367ZM41.5156 5.41016V1.36719H45.0312V5.41016H41.5156ZM41.5156 30V9.25781H45.0312V30H41.5156ZM56.1641 30L48.2734 9.25781H51.9844L56.4375 21.6797C56.9193 23.0208 57.362 24.4141 57.7656 25.8594C58.0781 24.7656 58.5143 23.4505 59.0742 21.9141L63.6836 9.25781H67.2969L59.4453 30H56.1641ZM83.9375 27.4414C82.6354 28.5482 81.3789 29.3294 80.168 29.7852C78.9701 30.2409 77.681 30.4688 76.3008 30.4688C74.0221 30.4688 72.2708 29.9154 71.0469 28.8086C69.8229 27.6888 69.2109 26.263 69.2109 24.5312C69.2109 23.5156 69.4388 22.5911 69.8945 21.7578C70.3633 20.9115 70.9688 20.2344 71.7109 19.7266C72.4661 19.2188 73.3125 18.8346 74.25 18.5742C74.9401 18.3919 75.9818 18.2161 77.375 18.0469C80.2135 17.7083 82.3034 17.3047 83.6445 16.8359C83.6576 16.3542 83.6641 16.0482 83.6641 15.918C83.6641 14.4857 83.332 13.4766 82.668 12.8906C81.7695 12.0964 80.4349 11.6992 78.6641 11.6992C77.0104 11.6992 75.7865 11.9922 74.9922 12.5781C74.2109 13.151 73.6315 14.1732 73.2539 15.6445L69.8164 15.1758C70.1289 13.7044 70.6432 12.5195 71.3594 11.6211C72.0755 10.7096 73.1107 10.013 74.4648 9.53125C75.819 9.03646 77.388 8.78906 79.1719 8.78906C80.9427 8.78906 82.3815 8.9974 83.4883 9.41406C84.5951 9.83073 85.4089 10.3581 85.9297 10.9961C86.4505 11.6211 86.8151 12.4154 87.0234 13.3789C87.1406 13.9779 87.1992 15.0586 87.1992 16.6211V21.3086C87.1992 24.5768 87.2708 26.6471 87.4141 27.5195C87.5703 28.3789 87.8698 29.2057 88.3125 30H84.6406C84.276 29.2708 84.0417 28.418 83.9375 27.4414ZM83.6445 19.5898C82.3685 20.1107 80.4544 20.5534 77.9023 20.918C76.457 21.1263 75.4349 21.3607 74.8359 21.6211C74.237 21.8815 73.7747 22.2656 73.4492 22.7734C73.1237 23.2682 72.9609 23.8216 72.9609 24.4336C72.9609 25.3711 73.3125 26.1523 74.0156 26.7773C74.7318 27.4023 75.7734 27.7148 77.1406 27.7148C78.4948 27.7148 79.6992 27.4219 80.7539 26.8359C81.8086 26.237 82.5833 25.4232 83.0781 24.3945C83.4557 23.6003 83.6445 22.4284 83.6445 20.8789V19.5898ZM92.6289 30V9.25781H95.793V12.4023C96.6003 10.931 97.3424 9.96094 98.0195 9.49219C98.7096 9.02344 99.4648 8.78906 100.285 8.78906C101.47 8.78906 102.674 9.16667 103.898 9.92188L102.688 13.1836C101.828 12.6758 100.969 12.4219 100.109 12.4219C99.3411 12.4219 98.651 12.6562 98.0391 13.125C97.4271 13.5807 96.9909 14.2188 96.7305 15.0391C96.3398 16.2891 96.1445 17.6562 96.1445 19.1406V30H92.6289ZM106.008 5.41016V1.36719H109.523V5.41016H106.008ZM106.008 30V9.25781H109.523V30H106.008ZM121.105 30L132.102 1.36719H136.184L147.902 30H143.586L140.246 21.3281H128.273L125.129 30H121.105ZM129.367 18.2422H139.074L136.086 10.3125C135.174 7.90365 134.497 5.92448 134.055 4.375C133.69 6.21094 133.176 8.03385 132.512 9.84375L129.367 18.2422ZM164.016 27.4414C162.714 28.5482 161.457 29.3294 160.246 29.7852C159.048 30.2409 157.759 30.4688 156.379 30.4688C154.1 30.4688 152.349 29.9154 151.125 28.8086C149.901 27.6888 149.289 26.263 149.289 24.5312C149.289 23.5156 149.517 22.5911 149.973 21.7578C150.441 20.9115 151.047 20.2344 151.789 19.7266C152.544 19.2188 153.391 18.8346 154.328 18.5742C155.018 18.3919 156.06 18.2161 157.453 18.0469C160.292 17.7083 162.382 17.3047 163.723 16.8359C163.736 16.3542 163.742 16.0482 163.742 15.918C163.742 14.4857 163.41 13.4766 162.746 12.8906C161.848 12.0964 160.513 11.6992 158.742 11.6992C157.089 11.6992 155.865 11.9922 155.07 12.5781C154.289 13.151 153.71 14.1732 153.332 15.6445L149.895 15.1758C150.207 13.7044 150.721 12.5195 151.438 11.6211C152.154 10.7096 153.189 10.013 154.543 9.53125C155.897 9.03646 157.466 8.78906 159.25 8.78906C161.021 8.78906 162.46 8.9974 163.566 9.41406C164.673 9.83073 165.487 10.3581 166.008 10.9961C166.529 11.6211 166.893 12.4154 167.102 13.3789C167.219 13.9779 167.277 15.0586 167.277 16.6211V21.3086C167.277 24.5768 167.349 26.6471 167.492 27.5195C167.648 28.3789 167.948 29.2057 168.391 30H164.719C164.354 29.2708 164.12 28.418 164.016 27.4414ZM163.723 19.5898C162.447 20.1107 160.533 20.5534 157.98 20.918C156.535 21.1263 155.513 21.3607 154.914 21.6211C154.315 21.8815 153.853 22.2656 153.527 22.7734C153.202 23.2682 153.039 23.8216 153.039 24.4336C153.039 25.3711 153.391 26.1523 154.094 26.7773C154.81 27.4023 155.852 27.7148 157.219 27.7148C158.573 27.7148 159.777 27.4219 160.832 26.8359C161.887 26.237 162.661 25.4232 163.156 24.3945C163.534 23.6003 163.723 22.4284 163.723 20.8789V19.5898ZM172.746 30V9.25781H175.91V12.207C177.434 9.92839 179.634 8.78906 182.512 8.78906C183.762 8.78906 184.908 9.01693 185.949 9.47266C187.004 9.91536 187.792 10.5013 188.312 11.2305C188.833 11.9596 189.198 12.8255 189.406 13.8281C189.536 14.4792 189.602 15.6185 189.602 17.2461V30H186.086V17.3828C186.086 15.9505 185.949 14.8828 185.676 14.1797C185.402 13.4635 184.914 12.8971 184.211 12.4805C183.521 12.0508 182.707 11.8359 181.77 11.8359C180.272 11.8359 178.977 12.3112 177.883 13.2617C176.802 14.2122 176.262 16.0156 176.262 18.6719V30H172.746ZM208.547 27.4414C207.245 28.5482 205.988 29.3294 204.777 29.7852C203.579 30.2409 202.29 30.4688 200.91 30.4688C198.632 30.4688 196.88 29.9154 195.656 28.8086C194.432 27.6888 193.82 26.263 193.82 24.5312C193.82 23.5156 194.048 22.5911 194.504 21.7578C194.973 20.9115 195.578 20.2344 196.32 19.7266C197.076 19.2188 197.922 18.8346 198.859 18.5742C199.549 18.3919 200.591 18.2161 201.984 18.0469C204.823 17.7083 206.913 17.3047 208.254 16.8359C208.267 16.3542 208.273 16.0482 208.273 15.918C208.273 14.4857 207.941 13.4766 207.277 12.8906C206.379 12.0964 205.044 11.6992 203.273 11.6992C201.62 11.6992 200.396 11.9922 199.602 12.5781C198.82 13.151 198.241 14.1732 197.863 15.6445L194.426 15.1758C194.738 13.7044 195.253 12.5195 195.969 11.6211C196.685 10.7096 197.72 10.013 199.074 9.53125C200.428 9.03646 201.997 8.78906 203.781 8.78906C205.552 8.78906 206.991 8.9974 208.098 9.41406C209.204 9.83073 210.018 10.3581 210.539 10.9961C211.06 11.6211 211.424 12.4154 211.633 13.3789C211.75 13.9779 211.809 15.0586 211.809 16.6211V21.3086C211.809 24.5768 211.88 26.6471 212.023 27.5195C212.18 28.3789 212.479 29.2057 212.922 30H209.25C208.885 29.2708 208.651 28.418 208.547 27.4414ZM208.254 19.5898C206.978 20.1107 205.064 20.5534 202.512 20.918C201.066 21.1263 200.044 21.3607 199.445 21.6211C198.846 21.8815 198.384 22.2656 198.059 22.7734C197.733 23.2682 197.57 23.8216 197.57 24.4336C197.57 25.3711 197.922 26.1523 198.625 26.7773C199.341 27.4023 200.383 27.7148 201.75 27.7148C203.104 27.7148 204.309 27.4219 205.363 26.8359C206.418 26.237 207.193 25.4232 207.688 24.3945C208.065 23.6003 208.254 22.4284 208.254 20.8789V19.5898ZM217.277 30V9.25781H220.441V12.207C221.965 9.92839 224.165 8.78906 227.043 8.78906C228.293 8.78906 229.439 9.01693 230.48 9.47266C231.535 9.91536 232.323 10.5013 232.844 11.2305C233.365 11.9596 233.729 12.8255 233.938 13.8281C234.068 14.4792 234.133 15.6185 234.133 17.2461V30H230.617V17.3828C230.617 15.9505 230.48 14.8828 230.207 14.1797C229.934 13.4635 229.445 12.8971 228.742 12.4805C228.052 12.0508 227.238 11.8359 226.301 11.8359C224.803 11.8359 223.508 12.3112 222.414 13.2617C221.333 14.2122 220.793 16.0156 220.793 18.6719V30H217.277ZM253 30V27.3828C251.685 29.4401 249.751 30.4688 247.199 30.4688C245.546 30.4688 244.022 30.013 242.629 29.1016C241.249 28.1901 240.174 26.9206 239.406 25.293C238.651 23.6523 238.273 21.7708 238.273 19.6484C238.273 17.5781 238.618 15.7031 239.309 14.0234C239.999 12.3307 241.034 11.0352 242.414 10.1367C243.794 9.23828 245.337 8.78906 247.043 8.78906C248.293 8.78906 249.406 9.05599 250.383 9.58984C251.359 10.1107 252.154 10.7943 252.766 11.6406V1.36719H256.262V30H253ZM241.887 19.6484C241.887 22.3047 242.447 24.2904 243.566 25.6055C244.686 26.9206 246.008 27.5781 247.531 27.5781C249.068 27.5781 250.37 26.9531 251.438 25.7031C252.518 24.4401 253.059 22.5195 253.059 19.9414C253.059 17.1029 252.512 15.0195 251.418 13.6914C250.324 12.3633 248.977 11.6992 247.375 11.6992C245.812 11.6992 244.504 12.3372 243.449 13.6133C242.408 14.8893 241.887 16.901 241.887 19.6484ZM275.344 27.4414C274.042 28.5482 272.785 29.3294 271.574 29.7852C270.376 30.2409 269.087 30.4688 267.707 30.4688C265.428 30.4688 263.677 29.9154 262.453 28.8086C261.229 27.6888 260.617 26.263 260.617 24.5312C260.617 23.5156 260.845 22.5911 261.301 21.7578C261.77 20.9115 262.375 20.2344 263.117 19.7266C263.872 19.2188 264.719 18.8346 265.656 18.5742C266.346 18.3919 267.388 18.2161 268.781 18.0469C271.62 17.7083 273.71 17.3047 275.051 16.8359C275.064 16.3542 275.07 16.0482 275.07 15.918C275.07 14.4857 274.738 13.4766 274.074 12.8906C273.176 12.0964 271.841 11.6992 270.07 11.6992C268.417 11.6992 267.193 11.9922 266.398 12.5781C265.617 13.151 265.038 14.1732 264.66 15.6445L261.223 15.1758C261.535 13.7044 262.049 12.5195 262.766 11.6211C263.482 10.7096 264.517 10.013 265.871 9.53125C267.225 9.03646 268.794 8.78906 270.578 8.78906C272.349 8.78906 273.788 8.9974 274.895 9.41406C276.001 9.83073 276.815 10.3581 277.336 10.9961C277.857 11.6211 278.221 12.4154 278.43 13.3789C278.547 13.9779 278.605 15.0586 278.605 16.6211V21.3086C278.605 24.5768 278.677 26.6471 278.82 27.5195C278.977 28.3789 279.276 29.2057 279.719 30H276.047C275.682 29.2708 275.448 28.418 275.344 27.4414ZM275.051 19.5898C273.775 20.1107 271.861 20.5534 269.309 20.918C267.863 21.1263 266.841 21.3607 266.242 21.6211C265.643 21.8815 265.181 22.2656 264.855 22.7734C264.53 23.2682 264.367 23.8216 264.367 24.4336C264.367 25.3711 264.719 26.1523 265.422 26.7773C266.138 27.4023 267.18 27.7148 268.547 27.7148C269.901 27.7148 271.105 27.4219 272.16 26.8359C273.215 26.237 273.99 25.4232 274.484 24.3945C274.862 23.6003 275.051 22.4284 275.051 20.8789V19.5898ZM295.617 30V1.36719H299.504L314.543 23.8477V1.36719H318.176V30H314.289L299.25 7.5V30H295.617ZM324.133 5.41016V1.36719H327.648V5.41016H324.133ZM324.133 30V9.25781H327.648V30H324.133ZM332.941 30V1.36719H336.457V30H332.941ZM355.461 27.4414C354.159 28.5482 352.902 29.3294 351.691 29.7852C350.493 30.2409 349.204 30.4688 347.824 30.4688C345.546 30.4688 343.794 29.9154 342.57 28.8086C341.346 27.6888 340.734 26.263 340.734 24.5312C340.734 23.5156 340.962 22.5911 341.418 21.7578C341.887 20.9115 342.492 20.2344 343.234 19.7266C343.99 19.2188 344.836 18.8346 345.773 18.5742C346.464 18.3919 347.505 18.2161 348.898 18.0469C351.737 17.7083 353.827 17.3047 355.168 16.8359C355.181 16.3542 355.188 16.0482 355.188 15.918C355.188 14.4857 354.855 13.4766 354.191 12.8906C353.293 12.0964 351.958 11.6992 350.188 11.6992C348.534 11.6992 347.31 11.9922 346.516 12.5781C345.734 13.151 345.155 14.1732 344.777 15.6445L341.34 15.1758C341.652 13.7044 342.167 12.5195 342.883 11.6211C343.599 10.7096 344.634 10.013 345.988 9.53125C347.342 9.03646 348.911 8.78906 350.695 8.78906C352.466 8.78906 353.905 8.9974 355.012 9.41406C356.118 9.83073 356.932 10.3581 357.453 10.9961C357.974 11.6211 358.339 12.4154 358.547 13.3789C358.664 13.9779 358.723 15.0586 358.723 16.6211V21.3086C358.723 24.5768 358.794 26.6471 358.938 27.5195C359.094 28.3789 359.393 29.2057 359.836 30H356.164C355.799 29.2708 355.565 28.418 355.461 27.4414ZM355.168 19.5898C353.892 20.1107 351.978 20.5534 349.426 20.918C347.98 21.1263 346.958 21.3607 346.359 21.6211C345.76 21.8815 345.298 22.2656 344.973 22.7734C344.647 23.2682 344.484 23.8216 344.484 24.4336C344.484 25.3711 344.836 26.1523 345.539 26.7773C346.255 27.4023 347.297 27.7148 348.664 27.7148C350.018 27.7148 351.223 27.4219 352.277 26.8359C353.332 26.237 354.107 25.4232 354.602 24.3945C354.979 23.6003 355.168 22.4284 355.168 20.8789V19.5898ZM364.035 37.9883L363.645 34.6875C364.413 34.8958 365.083 35 365.656 35C366.438 35 367.062 34.8698 367.531 34.6094C368 34.349 368.384 33.9844 368.684 33.5156C368.905 33.1641 369.263 32.2917 369.758 30.8984C369.823 30.7031 369.927 30.4167 370.07 30.0391L362.199 9.25781H365.988L370.305 21.2695C370.865 22.793 371.366 24.3945 371.809 26.0742C372.212 24.4596 372.694 22.8841 373.254 21.3477L377.688 9.25781H381.203L373.312 30.3516C372.466 32.6302 371.809 34.1992 371.34 35.0586C370.715 36.2174 369.999 37.0638 369.191 37.5977C368.384 38.1445 367.421 38.418 366.301 38.418C365.624 38.418 364.868 38.2747 364.035 37.9883ZM397.727 27.4414C396.424 28.5482 395.168 29.3294 393.957 29.7852C392.759 30.2409 391.47 30.4688 390.09 30.4688C387.811 30.4688 386.06 29.9154 384.836 28.8086C383.612 27.6888 383 26.263 383 24.5312C383 23.5156 383.228 22.5911 383.684 21.7578C384.152 20.9115 384.758 20.2344 385.5 19.7266C386.255 19.2188 387.102 18.8346 388.039 18.5742C388.729 18.3919 389.771 18.2161 391.164 18.0469C394.003 17.7083 396.092 17.3047 397.434 16.8359C397.447 16.3542 397.453 16.0482 397.453 15.918C397.453 14.4857 397.121 13.4766 396.457 12.8906C395.559 12.0964 394.224 11.6992 392.453 11.6992C390.799 11.6992 389.576 11.9922 388.781 12.5781C388 13.151 387.421 14.1732 387.043 15.6445L383.605 15.1758C383.918 13.7044 384.432 12.5195 385.148 11.6211C385.865 10.7096 386.9 10.013 388.254 9.53125C389.608 9.03646 391.177 8.78906 392.961 8.78906C394.732 8.78906 396.171 8.9974 397.277 9.41406C398.384 9.83073 399.198 10.3581 399.719 10.9961C400.24 11.6211 400.604 12.4154 400.812 13.3789C400.93 13.9779 400.988 15.0586 400.988 16.6211V21.3086C400.988 24.5768 401.06 26.6471 401.203 27.5195C401.359 28.3789 401.659 29.2057 402.102 30H398.43C398.065 29.2708 397.831 28.418 397.727 27.4414ZM397.434 19.5898C396.158 20.1107 394.243 20.5534 391.691 20.918C390.246 21.1263 389.224 21.3607 388.625 21.6211C388.026 21.8815 387.564 22.2656 387.238 22.7734C386.913 23.2682 386.75 23.8216 386.75 24.4336C386.75 25.3711 387.102 26.1523 387.805 26.7773C388.521 27.4023 389.562 27.7148 390.93 27.7148C392.284 27.7148 393.488 27.4219 394.543 26.8359C395.598 26.237 396.372 25.4232 396.867 24.3945C397.245 23.6003 397.434 22.4284 397.434 20.8789V19.5898ZM406.457 30V9.25781H409.602V12.168C410.253 11.1523 411.118 10.3385 412.199 9.72656C413.28 9.10156 414.51 8.78906 415.891 8.78906C417.427 8.78906 418.684 9.10807 419.66 9.74609C420.65 10.3841 421.346 11.276 421.75 12.4219C423.391 10 425.526 8.78906 428.156 8.78906C430.214 8.78906 431.796 9.36198 432.902 10.5078C434.009 11.6406 434.562 13.3919 434.562 15.7617V30H431.066V16.9336C431.066 15.5273 430.949 14.5182 430.715 13.9062C430.493 13.2812 430.083 12.7799 429.484 12.4023C428.885 12.0247 428.182 11.8359 427.375 11.8359C425.917 11.8359 424.706 12.3242 423.742 13.3008C422.779 14.2643 422.297 15.8138 422.297 17.9492V30H418.781V16.5234C418.781 14.9609 418.495 13.7891 417.922 13.0078C417.349 12.2266 416.411 11.8359 415.109 11.8359C414.12 11.8359 413.202 12.0964 412.355 12.6172C411.522 13.138 410.917 13.8997 410.539 14.9023C410.161 15.9049 409.973 17.3503 409.973 19.2383V30H406.457Z" fill="white"/>
</svg>
