<svg width="887" height="173" viewBox="0 0 887 173" fill="none" xmlns="http://www.w3.org/2000/svg">
<path d="M86.9541 141.952H60.0707V139.097C65.6219 139.097 68.3974 137.035 68.3974 132.911V66.0597C68.3974 58.6054 66.3356 52.5784 62.2119 47.9789C58.0882 43.3794 52.2992 41.0797 44.8448 41.0797C34.6941 41.0797 27.3191 45.0448 22.7196 52.9749C18.4373 59.9535 15.9789 70.8179 15.3445 85.568C16.9305 80.4927 21.1335 77.955 27.9535 77.955C34.4562 77.955 39.0557 80.3341 41.752 85.0922C44.6069 89.6917 46.0343 97.6219 46.0343 108.883C46.0343 130.77 38.5799 141.714 23.6712 141.714C15.5824 141.714 9.63476 138.304 5.82827 131.484C2.18039 124.505 0.356444 113.244 0.356444 97.7012C0.356444 77.5585 3.36991 62.7291 9.39686 53.2128C16.3754 42.1106 28.1914 36.5595 44.8448 36.5595C68.6353 36.5595 80.5306 47.3445 80.5306 68.9146V134.814C80.5306 136.242 81.2443 137.352 82.6718 138.145C84.0992 138.938 85.5266 139.176 86.9541 138.859V141.952ZM32.9495 104.838C32.9495 90.564 30.1739 83.4269 24.6228 83.4269C17.4856 83.4269 13.9171 93.4189 13.9171 113.403C13.9171 129.898 17.0098 138.145 23.1954 138.145C29.6981 138.145 32.9495 127.043 32.9495 104.838ZM168.5 112.689C168.5 140.445 155.494 154.323 129.483 154.323C124.725 154.323 120.443 154.085 116.636 153.609C112.989 153.133 110.292 152.895 108.548 152.895C101.728 152.895 96.8903 154.243 94.0355 156.94C91.1806 159.795 89.7532 164.949 89.7532 172.404H86.8983V150.754C88.4843 148.216 92.2908 146.948 98.3178 146.948C102.124 146.948 106.882 147.344 112.592 148.137C118.46 149.089 122.981 149.565 126.153 149.565C136.145 149.565 143.441 147.027 148.04 141.952C153.274 135.925 155.891 125.378 155.891 110.31C155.891 92.7052 151.688 83.9027 143.282 83.9027H138.048V123.395C138.048 129.422 136.065 134.101 132.1 137.431C128.77 140.286 124.487 141.714 119.253 141.714C110.53 141.714 103.869 138.78 99.2694 132.911C94.8285 127.043 92.608 119.192 92.608 109.359C92.608 94.767 96.9696 85.8852 105.693 82.7131V59.3984C105.693 54.4817 103.472 52.0233 99.0315 52.0233C97.9213 52.0233 96.8903 52.3405 95.9387 52.9749V49.6443H149.23C154.305 49.6443 156.843 46.5515 156.843 40.3659H158.746V63.2049H156.843C156.843 57.0193 154.781 53.9266 150.657 53.9266H138.048V79.6204H142.806C151.212 79.6204 157.477 81.9201 161.601 86.5196C166.2 91.7535 168.5 100.477 168.5 112.689ZM126.629 79.6204V54.1645H117.35V79.6204H126.629ZM126.629 126.726V83.9027H119.016C115.05 83.9027 111.799 86.2024 109.261 90.8019C106.248 96.1945 104.741 103.807 104.741 113.641C104.741 121.095 105.931 126.964 108.31 131.246C110.847 135.37 113.94 137.431 117.588 137.431C123.615 137.431 126.629 133.863 126.629 126.726ZM257.384 24.6642C257.384 28.6293 255.877 30.6118 252.863 30.6118C250.326 30.6118 246.202 28.2328 240.492 23.4746C241.285 29.0258 241.682 31.8013 241.682 31.8013C241.682 37.0353 239.62 39.6522 235.496 39.6522C231.848 39.6522 230.025 37.2732 230.025 32.5151C230.025 29.8188 230.738 27.2018 232.166 24.6642C228.994 26.2502 226.059 27.0432 223.363 27.0432C217.971 27.0432 215.274 25.14 215.274 21.3335C215.274 17.6856 218.764 15.8617 225.742 15.8617C227.328 15.8617 228.914 15.941 230.5 16.0996C225.108 11.5001 222.412 7.93148 222.412 5.39382C222.412 1.90454 224.077 0.159905 227.408 0.159905C232.166 0.159905 235.417 4.3629 237.162 12.7689C239.065 5.15592 242.237 1.34943 246.678 1.34943C250.643 1.34943 252.626 3.01477 252.626 6.34544C252.626 10.6277 249.453 14.5928 243.109 18.2407C247.709 18.3993 251.357 19.1923 254.053 20.6198C256.273 21.8886 257.384 23.2367 257.384 24.6642ZM290.215 63.6807H288.311C287.043 56.8607 284.426 53.4507 280.461 53.4507H273.799V133.387C273.799 135.29 274.592 136.797 276.178 137.907C277.923 139.017 279.588 139.414 281.174 139.097V141H254.053V139.097C259.128 139.255 261.666 137.194 261.666 132.911V53.4507H246.916C244.378 53.4507 242.554 53.8473 241.444 54.6403C249.85 63.0463 254.053 77.162 254.053 96.9875C254.053 127.122 246.044 142.19 230.025 142.19C222.253 142.19 217.019 139.573 214.323 134.339C211.151 139.89 206.234 142.665 199.573 142.665C183.554 142.665 175.544 128.788 175.544 101.032C175.544 65.5046 189.66 47.741 217.891 47.741C225.187 47.741 230.738 48.6133 234.545 50.358C236.131 49.4064 239.541 48.9305 244.775 48.9305H278.795C284.505 48.9305 287.677 45.6792 288.311 39.1764H290.215V63.6807ZM238.113 19.1923C238.113 17.2891 237.32 16.3375 235.734 16.3375C233.831 16.3375 232.879 17.2891 232.879 19.1923C232.879 21.0956 233.752 22.0472 235.496 22.0472C237.241 22.0472 238.113 21.0956 238.113 19.1923ZM227.17 52.4991C224.315 51.5475 221.381 51.0717 218.367 51.0717C211.071 51.0717 204.886 53.6887 199.811 58.9226C194.259 64.7909 191.246 72.5625 190.77 82.2373C193.308 79.3825 196.718 77.955 201 77.955C204.172 77.955 207.344 78.748 210.516 80.3341C210.833 74.9416 212.737 69.1525 216.226 62.967C219.715 56.6228 223.363 53.1335 227.17 52.4991ZM241.444 97.4633C241.444 76.0518 238.351 62.2533 232.166 56.0677C224.553 60.8258 220.746 76.7655 220.746 103.887C220.746 126.567 223.839 137.907 230.025 137.907C232.879 137.907 235.417 135.052 237.638 129.343C240.175 122.047 241.444 111.42 241.444 97.4633ZM207.661 111.024C207.661 92.3087 204.569 82.951 198.383 82.951C192.198 82.951 189.105 91.1984 189.105 107.693C189.105 127.836 192.198 137.907 198.383 137.907C204.569 137.907 207.661 128.946 207.661 111.024ZM458.817 144.331H431.458V141.952C437.485 141.952 440.498 139.493 440.498 134.577V41.7934C440.498 31.0083 434.313 25.6158 421.942 25.6158C415.756 25.6158 410.919 27.3604 407.43 30.8497C404.099 34.339 402.434 38.6213 402.434 43.6966V49.6443H414.091C419.008 49.6443 421.466 46.4722 421.466 40.128H423.607V63.2049H421.466C421.466 57.0193 419.483 53.9266 415.518 53.9266H402.434V79.6204H407.192C416.549 79.6204 423.131 81.9994 426.938 86.7575C430.903 91.357 432.885 100.001 432.885 112.689C432.885 140.286 419.88 154.085 393.869 154.085C389.111 154.085 384.829 153.847 381.022 153.371C377.374 153.054 374.678 152.895 372.933 152.895C365.796 152.895 360.879 154.243 358.183 156.94C355.645 159.636 354.377 164.791 354.377 172.404H351.522V150.754C352.949 148.058 356.676 146.71 362.703 146.71C366.51 146.71 371.268 147.106 376.978 147.899C382.846 148.851 387.366 149.327 390.538 149.327C400.689 149.327 408.064 146.789 412.664 141.714C417.897 135.845 420.514 125.298 420.514 110.072C420.514 92.6259 416.232 83.9027 407.667 83.9027H402.434V123.395C402.434 129.581 400.451 134.259 396.486 137.431C393.155 140.286 388.952 141.714 383.877 141.714C375.154 141.714 368.492 138.78 363.893 132.911C359.293 127.043 356.994 119.192 356.994 109.359C356.994 95.56 361.355 86.7575 370.078 82.951V59.3984C370.078 57.3365 369.285 55.6712 367.699 54.4024C366.272 52.9749 364.607 52.2612 362.703 52.2612C361.752 52.2612 360.959 52.4198 360.324 52.737V49.6443H391.252C391.411 39.4936 394.265 32.2772 399.817 27.9949C404.733 24.1884 412.188 22.2851 422.18 22.2851C431.379 22.2851 438.675 24.347 444.067 28.4707C449.618 32.4358 452.394 37.5904 452.394 43.9345V136.242C452.394 139.89 454.535 141.872 458.817 142.19V144.331ZM391.252 79.6204V53.9266H381.736V79.6204H391.252ZM391.252 126.964V83.9027H383.401C379.436 83.9027 376.185 86.2817 373.647 91.0398C370.634 96.4324 369.127 104.045 369.127 113.879C369.127 121.333 370.316 127.122 372.695 131.246C375.233 135.211 378.326 137.194 381.974 137.194C388.159 137.194 391.252 133.784 391.252 126.964ZM574.486 116.734C574.486 131.008 569.331 142.348 559.022 150.754C549.347 158.526 536.897 162.412 521.671 162.412C502.004 162.412 487.65 158.764 478.61 151.468C468.935 143.379 464.098 130.136 464.098 111.738C464.098 98.8907 466.239 88.7401 470.521 81.2857C475.279 73.1969 481.94 69.1525 490.505 69.1525V72.7211C480.672 72.7211 475.755 86.4403 475.755 113.879C475.755 143.22 490.505 157.891 520.005 157.891C533.645 157.891 544.034 153.768 551.171 145.52C558.467 137.431 562.115 125.774 562.115 110.548C562.115 93.1017 557.832 84.3785 549.268 84.3785C545.62 84.3785 542.527 85.9645 539.989 89.1366C537.61 92.3087 536.421 95.8772 536.421 99.8423V133.625C536.421 137.431 538.245 139.255 541.893 139.097V141H517.388V138.859C522.147 138.859 524.526 136.48 524.526 131.722V54.4024H507.158V133.149C507.158 136.797 508.745 138.621 511.917 138.621V141H488.126V138.859C493.043 138.859 495.501 136.4 495.501 131.484V59.1605C495.501 54.0852 492.488 51.944 486.461 52.737V49.8822H551.885C554.581 49.8822 556.801 49.0098 558.546 47.2652C560.291 45.5206 560.925 43.1415 560.449 40.128H562.59V63.4428H560.211C560.211 59.9535 559.736 57.5744 558.784 56.3056C557.832 55.0368 555.85 54.4024 552.836 54.4024H536.421V87.7092C539.434 81.6822 544.272 78.6687 550.933 78.6687C559.181 78.6687 565.128 81.6822 568.776 87.7092C572.583 93.7361 574.486 103.411 574.486 116.734ZM665.875 92.2294C665.875 124.743 655.645 141 635.185 141H579.039V138.859C583.956 138.859 586.415 136.321 586.415 131.246V57.733C586.415 53.4508 584.194 51.4682 579.753 51.7854V49.6443H605.923V51.7854C600.847 51.7854 598.31 54.4817 598.31 59.8742V136.48H617.342V57.733C617.342 53.1335 615.36 51.2303 611.395 52.0233V49.6443H634.471C655.407 49.6443 665.875 63.8393 665.875 92.2294ZM653.742 93.181C653.742 78.1136 651.918 67.4872 648.27 61.3016C645.257 56.0677 640.578 53.4507 634.234 53.4507H629.951V136.48H634.234C647.239 136.48 653.742 122.047 653.742 93.181ZM781.685 94.6084C781.685 126.488 773.358 142.427 756.705 142.427C752.898 142.427 750.598 141.714 749.805 140.286V134.339C752.026 136.876 754.484 138.145 757.181 138.145C760.353 138.145 763.207 134.814 765.745 128.153C768.441 120.699 769.79 111.024 769.79 99.1286C769.79 80.7306 767.728 67.963 763.604 60.8258C760.273 55.1161 754.801 52.2612 747.188 52.2612C742.589 52.2612 739.417 52.9749 737.672 54.4024C741.637 56.6228 744.889 61.7774 747.426 69.8662C749.964 77.7964 751.233 86.8368 751.233 96.9875C751.233 127.281 742.906 142.427 726.253 142.427C719.909 142.427 714.833 139.81 711.027 134.577C708.013 140.128 703.176 142.903 696.515 142.903C680.496 142.903 672.486 129.184 672.486 101.746C672.486 66.0597 686.76 48.2168 715.309 48.2168C723.398 48.2168 728.711 49.1684 731.249 51.0717C734.104 49.3271 739.258 48.4547 746.713 48.4547C770.027 48.4547 781.685 63.8393 781.685 94.6084ZM724.35 52.9749C721.336 52.1819 718.402 51.7854 715.547 51.7854C707.934 51.7854 701.669 54.4024 696.753 59.6363C691.36 65.1874 688.267 73.1969 687.474 83.6648C690.329 80.1755 694.136 78.4308 698.894 78.4308C702.383 78.4308 705.317 79.3825 707.696 81.2857C707.538 76.0518 709.282 70.1834 712.93 63.6807C716.737 57.1779 720.543 53.6094 724.35 52.9749ZM738.624 100.556C738.624 76.7655 735.61 62.0946 729.583 56.5435C721.812 61.6188 717.926 77.3999 717.926 103.887C717.926 126.726 721.019 138.145 727.204 138.145C729.901 138.145 732.359 135.211 734.58 129.343C737.276 122.364 738.624 112.769 738.624 100.556ZM704.365 111.738C704.365 93.0224 701.511 83.6648 695.801 83.6648C689.14 83.6648 685.809 91.7535 685.809 107.931C685.809 128.074 688.902 138.145 695.087 138.145C701.273 138.145 704.365 129.343 704.365 111.738ZM886.441 91.5156C886.441 124.981 877.559 141.714 859.796 141.714C846.949 141.714 840.526 135.528 840.526 123.157V70.8179C840.526 58.4468 835.926 52.2612 826.727 52.2612C812.928 52.2612 805.157 62.0153 803.412 81.5236C807.06 77.8757 811.263 76.0518 816.021 76.0518C828.075 76.0518 834.102 85.9645 834.102 105.79C834.102 129.898 826.568 141.952 811.501 141.952C796.275 141.952 788.662 128.074 788.662 100.318C788.662 64.9495 800.954 47.2652 825.537 47.2652C844.094 47.2652 853.372 54.9575 853.372 70.342V126.012C853.372 133.308 855.91 136.956 860.985 136.956C864.157 136.956 867.012 133.546 869.55 126.726C872.246 118.954 873.594 108.486 873.594 95.3221C873.594 80.7306 872.167 69.549 869.312 61.7774C866.774 54.7989 863.364 51.3096 859.082 51.3096C857.813 51.3096 856.465 51.6268 855.038 52.2612V47.2652C856.624 46.948 858.131 46.7894 859.558 46.7894C867.647 46.7894 874.149 50.6752 879.066 58.4468C883.983 66.2183 886.441 77.2413 886.441 91.5156ZM820.066 109.121C820.066 90.4054 817.369 81.0478 811.977 81.0478C805.474 81.0478 802.223 89.9296 802.223 107.693C802.223 126.884 805.315 136.48 811.501 136.48C817.211 136.48 820.066 127.36 820.066 109.121Z" fill="url(#paint0_linear_470_545)"/>
<defs>
<linearGradient id="paint0_linear_470_545" x1="93.8771" y1="3" x2="642.106" y2="141.096" gradientUnits="userSpaceOnUse">
<stop stop-color="#FFD600"/>
<stop offset="1" stop-color="#FF7A00"/>
</linearGradient>
</defs>
</svg>
